<?xml version="1.0" encoding="UTF-8" standalone="no"?>
<svg
   version="1.1"
   width="48"
   height="48"
   id="svg6649"
   sodipodi:docname="bash.svg"
   inkscape:version="1.1.2 (0a00cf5339, 2022-02-04)"
   xmlns:inkscape="http://www.inkscape.org/namespaces/inkscape"
   xmlns:sodipodi="http://sodipodi.sourceforge.net/DTD/sodipodi-0.dtd"
   xmlns:xlink="http://www.w3.org/1999/xlink"
   xmlns="http://www.w3.org/2000/svg"
   xmlns:svg="http://www.w3.org/2000/svg"
   xmlns:rdf="http://www.w3.org/1999/02/22-rdf-syntax-ns#"
   xmlns:cc="http://creativecommons.org/ns#"
   xmlns:dc="http://purl.org/dc/elements/1.1/">
  <sodipodi:namedview
     pagecolor="#ffffff"
     bordercolor="#666666"
     borderopacity="1"
     objecttolerance="10"
     gridtolerance="10"
     guidetolerance="10"
     inkscape:pageopacity="0"
     inkscape:pageshadow="2"
     inkscape:window-width="1920"
     inkscape:window-height="1019"
     id="namedview35"
     showgrid="false"
     inkscape:zoom="8"
     inkscape:cx="23.3125"
     inkscape:cy="31.375"
     inkscape:window-x="0"
     inkscape:window-y="30"
     inkscape:window-maximized="1"
     inkscape:current-layer="svg6649"
     inkscape:document-rotation="0"
     inkscape:pagecheckerboard="0"
     showguides="true">
    <inkscape:grid
       type="xygrid"
       id="grid855"
       empspacing="4" />
    <inkscape:grid
       type="xygrid"
       id="grid857"
       empspacing="2"
       spacingy="0.5"
       spacingx="0.5"
       dotted="true" />
  </sodipodi:namedview>
  <defs
     id="defs6651">
    <linearGradient
       id="linearGradient1201">
      <stop
         id="stop1193"
         style="stop-color:#ffffff;stop-opacity:1"
         offset="0" />
      <stop
         id="stop1195"
         style="stop-color:#ffffff;stop-opacity:0.23529412"
         offset="0.06781636" />
      <stop
         id="stop1197"
         style="stop-color:#ffffff;stop-opacity:0.15686275"
         offset="0.94694352" />
      <stop
         id="stop1199"
         style="stop-color:#ffffff;stop-opacity:0.39215687"
         offset="1" />
    </linearGradient>
    <linearGradient
       id="linearGradient854">
      <stop
         style="stop-color:#667885;stop-opacity:1"
         offset="0"
         id="stop850" />
      <stop
         style="stop-color:#485a6c;stop-opacity:1"
         offset="1"
         id="stop852" />
    </linearGradient>
    <linearGradient
       id="linearGradient3688-166-749">
      <stop
         id="stop2883"
         style="stop-color:#181818;stop-opacity:1"
         offset="0" />
      <stop
         id="stop2885"
         style="stop-color:#181818;stop-opacity:0"
         offset="1" />
    </linearGradient>
    <linearGradient
       id="linearGradient3702-501-757">
      <stop
         id="stop2895"
         style="stop-color:#181818;stop-opacity:0"
         offset="0" />
      <stop
         id="stop2897"
         style="stop-color:#181818;stop-opacity:1"
         offset="0.5" />
      <stop
         id="stop2899"
         style="stop-color:#181818;stop-opacity:0"
         offset="1" />
    </linearGradient>
    <radialGradient
       cx="4.9929786"
       cy="43.5"
       r="2.5"
       fx="4.9929786"
       fy="43.5"
       id="radialGradient3013-6"
       xlink:href="#linearGradient3688-166-749"
       gradientUnits="userSpaceOnUse"
       gradientTransform="matrix(2.003784,0,0,0.89999994,29.98813,4.8500025)" />
    <radialGradient
       cx="4.9929786"
       cy="43.5"
       r="2.5"
       fx="4.9929786"
       fy="43.5"
       id="radialGradient3015-1"
       xlink:href="#linearGradient3688-166-749"
       gradientUnits="userSpaceOnUse"
       gradientTransform="matrix(2.003784,0,0,0.89999994,-18.01187,-83.149997)" />
    <linearGradient
       xlink:href="#linearGradient854"
       id="linearGradient856-2"
       x1="23.528315"
       y1="6.08318"
       x2="23.528315"
       y2="44.23307"
       gradientUnits="userSpaceOnUse" />
    <linearGradient
       x1="38.999996"
       y1="5.9999938"
       x2="38.999996"
       y2="41.945408"
       id="linearGradient3058-5"
       xlink:href="#linearGradient1201"
       gradientUnits="userSpaceOnUse"
       gradientTransform="translate(4e-6,1.0000062)" />
    <linearGradient
       xlink:href="#linearGradient3702-501-757"
       id="linearGradient1191"
       gradientUnits="userSpaceOnUse"
       x1="25.058096"
       y1="47.027729"
       x2="25.058096"
       y2="39.999443"
       gradientTransform="matrix(1.1428571,0,0,0.6428571,-3.428569,16.035716)" />
  </defs>
  <metadata
     id="metadata6654">
    <rdf:RDF>
      <cc:Work
         rdf:about="">
        <dc:format>image/svg+xml</dc:format>
        <dc:type
           rdf:resource="http://purl.org/dc/dcmitype/StillImage" />
        <dc:title />
      </cc:Work>
    </rdf:RDF>
  </metadata>
  <rect
     style="opacity:0.6;fill:url(#radialGradient3013-6);fill-opacity:1;stroke:none;stroke-width:0.862764"
     id="rect2801-3-7"
     y="41.75"
     x="40"
     height="4.4999995"
     width="5" />
  <rect
     style="opacity:0.6;fill:url(#radialGradient3015-1);fill-opacity:1;stroke:none;stroke-width:0.862764"
     id="rect3696-6-3"
     transform="scale(-1)"
     y="-46.25"
     x="-8"
     height="4.4999995"
     width="5" />
  <rect
     style="opacity:0.6;fill:url(#linearGradient1191);fill-opacity:1;stroke:none;stroke-width:0.862764"
     id="rect3700-4-6"
     y="41.75"
     x="8"
     height="4.5"
     width="32" />
  <rect
     style="color:#000000;display:inline;overflow:visible;visibility:visible;opacity:1;fill:#333333;fill-opacity:1;fill-rule:nonzero;stroke:none;stroke-width:1;stroke-opacity:0.5;marker:none;enable-background:accumulate"
     id="rect5505-21-1"
     y="5.4999952"
     x="4.5000153"
     ry="4"
     rx="4"
     height="39"
     width="39" />
  <rect
     style="opacity:0.35;fill:none;stroke:url(#linearGradient3058-5);stroke-width:1;stroke-linecap:round;stroke-linejoin:round;stroke-miterlimit:4;stroke-dasharray:none;stroke-dashoffset:0;stroke-opacity:1"
     id="rect6741-2"
     y="6.4999952"
     x="5.5000153"
     ry="3"
     rx="3"
     height="37"
     width="37" />
  <rect
     style="color:#000000;display:inline;overflow:visible;visibility:visible;opacity:0.5;fill:none;fill-opacity:1;fill-rule:nonzero;stroke:#273445;stroke-width:1;stroke-opacity:1;marker:none;enable-background:accumulate"
     id="rect860"
     y="5.4999952"
     x="4.5000153"
     ry="4"
     rx="4"
     height="39"
     width="39" />
  <style
     type="text/css"
     id="style25811">
	.st0{fill:#FFFFFF;}
</style>
  <g
     id="g25815"
     transform="matrix(0.25923869,0,0,0.25923869,4.0358695,5.3908018)">
	<path
   class="st0"
   d="M 118.9,40.3 81.7,18.2 c -2.2,-1.3 -4.7,-2 -7.2,-2 -2.5,0 -5,0.7 -7.2,2 L 30.1,40.3 c -4.4,2.6 -7.2,7.5 -7.2,12.8 v 44.2 c 0,5.3 2.7,10.1 7.2,12.8 l 37.2,22.1 c 2.2,1.3 4.7,2 7.2,2 2.5,0 5,-0.7 7.2,-2 l 37.2,-22.1 c 4.4,-2.6 7.2,-7.5 7.2,-12.8 V 53 c 0,-5.2 -2.7,-10.1 -7.2,-12.7 z m -28.8,69 0.1,3.2 c 0,0.4 -0.2,0.8 -0.5,1 l -1.9,1.1 c -0.3,0.2 -0.5,0 -0.6,-0.4 v -3.1 c -1.6,0.7 -3.2,0.8 -4.3,0.4 -0.2,-0.1 -0.3,-0.4 -0.2,-0.7 l 0.7,-2.9 c 0.1,-0.2 0.2,-0.5 0.3,-0.6 0.1,-0.1 0.1,-0.1 0.2,-0.1 0.1,-0.1 0.2,-0.1 0.3,0 1.1,0.4 2.6,0.2 3.9,-0.5 1.8,-0.9 2.9,-2.7 2.9,-4.5 0,-1.6 -0.9,-2.3 -3,-2.3 -2.7,0 -5.2,-0.5 -5.3,-4.5 0,-3.3 1.7,-6.7 4.4,-8.8 v -3.2 c 0,-0.4 0.2,-0.8 0.5,-1 l 1.8,-1.2 c 0.3,-0.2 0.5,0 0.6,0.4 v 3.2 c 1.3,-0.5 2.5,-0.7 3.6,-0.4 0.2,0.1 0.3,0.4 0.2,0.7 l -0.7,2.8 c -0.1,0.2 -0.2,0.4 -0.3,0.6 -0.1,0.1 -0.1,0.1 -0.2,0.1 -0.1,0 -0.2,0.1 -0.3,0 -0.5,-0.1 -1.6,-0.4 -3.4,0.6 -1.9,1 -2.6,2.6 -2.5,3.8 0,1.5 0.8,1.9 3.3,1.9 3.4,0.1 4.9,1.6 5,5 0,3.5 -1.8,7.1 -4.6,9.4 z m 19.5,-5.4 c 0,0.3 0,0.6 -0.3,0.7 l -9.4,5.7 c -0.2,0.1 -0.4,0 -0.4,-0.3 v -2.4 c 0,-0.3 0.2,-0.5 0.4,-0.6 l 9.3,-5.5 c 0.2,-0.1 0.4,0 0.4,0.3 z m 6.5,-54.3 -35.2,21.7 c -4.4,2.6 -7.6,5.4 -7.6,10.7 v 43.4 c 0,3.2 1.3,5.2 3.2,5.8 -0.6,0.1 -1.3,0.2 -2,0.2 -2.1,0 -4.1,-0.6 -5.9,-1.6 L 31.4,107.7 c -3.6,-2.2 -5.9,-6.2 -5.9,-10.5 V 53 c 0,-4.3 2.3,-8.4 5.9,-10.5 L 68.6,20.4 c 1.8,-1.1 3.8,-1.6 5.9,-1.6 2.1,0 4.1,0.6 5.9,1.6 l 37.2,22.1 c 3.1,1.8 5.1,5 5.7,8.5 -1.2,-2.6 -4,-3.3 -7.2,-1.4 z"
   id="path25813" />

</g>
</svg>
