<?xml version="1.0" encoding="UTF-8" standalone="no"?>
<svg
   version="1.1"
   width="16"
   height="16"
   id="svg4372"
   sodipodi:docname="bash.svg"
   inkscape:version="1.1.2 (0a00cf5339, 2022-02-04)"
   xmlns:inkscape="http://www.inkscape.org/namespaces/inkscape"
   xmlns:sodipodi="http://sodipodi.sourceforge.net/DTD/sodipodi-0.dtd"
   xmlns:xlink="http://www.w3.org/1999/xlink"
   xmlns="http://www.w3.org/2000/svg"
   xmlns:svg="http://www.w3.org/2000/svg"
   xmlns:rdf="http://www.w3.org/1999/02/22-rdf-syntax-ns#"
   xmlns:cc="http://creativecommons.org/ns#"
   xmlns:dc="http://purl.org/dc/elements/1.1/">
  <sodipodi:namedview
     pagecolor="#ffffff"
     bordercolor="#666666"
     borderopacity="1"
     objecttolerance="10"
     gridtolerance="10"
     guidetolerance="10"
     inkscape:pageopacity="0"
     inkscape:pageshadow="2"
     inkscape:window-width="1920"
     inkscape:window-height="1019"
     id="namedview23"
     showgrid="true"
     inkscape:zoom="22.627417"
     inkscape:cx="14.03165"
     inkscape:cy="9.2807765"
     inkscape:window-x="0"
     inkscape:window-y="30"
     inkscape:window-maximized="1"
     inkscape:current-layer="g265"
     inkscape:document-rotation="0"
     inkscape:pagecheckerboard="0">
    <inkscape:grid
       type="xygrid"
       id="grid843"
       empspacing="4" />
    <inkscape:grid
       type="xygrid"
       id="grid845"
       empspacing="2"
       spacingy="0.5"
       spacingx="0.5"
       dotted="true" />
  </sodipodi:namedview>
  <defs
     id="defs4374">
    <linearGradient
       id="linearGradient877">
      <stop
         id="stop869"
         style="stop-color:#667885;stop-opacity:1"
         offset="0" />
      <stop
         id="stop875"
         style="stop-color:#485a6c;stop-opacity:1"
         offset="1" />
    </linearGradient>
    <linearGradient
       x1="23.99999"
       y1="4.999989"
       x2="23.99999"
       y2="43"
       id="linearGradient3304"
       xlink:href="#linearGradient3924-4-8"
       gradientUnits="userSpaceOnUse"
       gradientTransform="matrix(0.2972973,0,0,0.2972973,0.86486906,0.8648672)" />
    <linearGradient
       id="linearGradient3924-4-8">
      <stop
         id="stop3926-0-4"
         style="stop-color:#ffffff;stop-opacity:1"
         offset="0" />
      <stop
         id="stop3928-6-8"
         style="stop-color:#ffffff;stop-opacity:0.23529412"
         offset="0.06316455" />
      <stop
         id="stop3930-2-1"
         style="stop-color:#ffffff;stop-opacity:0.15686275"
         offset="0.95056331" />
      <stop
         id="stop3932-9-0"
         style="stop-color:#ffffff;stop-opacity:0.39215687"
         offset="1" />
    </linearGradient>
    <linearGradient
       xlink:href="#linearGradient877"
       id="linearGradient867"
       x1="7.9050331"
       y1="1.5559154"
       x2="7.9050331"
       y2="14.459918"
       gradientUnits="userSpaceOnUse" />
    <linearGradient
       x1="23.99999"
       y1="7.1818104"
       x2="23.99999"
       y2="40.818172"
       id="linearGradient3896"
       xlink:href="#linearGradient3924-4-8-3"
       gradientUnits="userSpaceOnUse"
       gradientTransform="matrix(0.2972973,0,0,0.2972973,0.86486973,0.8648672)" />
    <linearGradient
       id="linearGradient3924-4-8-3">
      <stop
         id="stop3926-0-4-6"
         style="stop-color:#ffffff;stop-opacity:1"
         offset="0" />
      <stop
         id="stop3928-6-8-7"
         style="stop-color:#ffffff;stop-opacity:0.23529412"
         offset="0" />
      <stop
         id="stop3930-2-1-5"
         style="stop-color:#ffffff;stop-opacity:0.15686275"
         offset="1" />
      <stop
         id="stop3932-9-0-3"
         style="stop-color:#ffffff;stop-opacity:0.39215687"
         offset="1" />
    </linearGradient>
    <radialGradient
       gradientTransform="matrix(0,1.9793445,-2.430003,0,32.472825,-18.416726)"
       gradientUnits="userSpaceOnUse"
       xlink:href="#linearGradient2867-449-88-871-390-598-476-591-434-148-57-177-8-3-3-6-4-8-8-8-5-7-8"
       id="radialGradient3988-3-3"
       fy="9.9571075"
       fx="6.952919"
       r="12.671875"
       cy="9.9571075"
       cx="6.952919" />
    <linearGradient
       id="linearGradient2867-449-88-871-390-598-476-591-434-148-57-177-8-3-3-6-4-8-8-8-5-7-8">
      <stop
         offset="0"
         style="stop-color:#404648;stop-opacity:1"
         id="stop3750-1-0-7-6-6-1-3-9-3-9-2" />
      <stop
         offset="1"
         style="stop-color:#0c1011;stop-opacity:1"
         id="stop3754-1-8-5-2-7-6-7-1-9-1-0" />
    </linearGradient>
  </defs>
  <metadata
     id="metadata4377">
    <rdf:RDF>
      <cc:Work
         rdf:about="">
        <dc:format>image/svg+xml</dc:format>
        <dc:type
           rdf:resource="http://purl.org/dc/dcmitype/StillImage" />
      </cc:Work>
    </rdf:RDF>
  </metadata>
  <g
     id="layer1">
    <rect
       style="fill:#ececec"
       id="rect9600"
       width="0.5"
       height="0.5"
       x="-7"
       y="3.5" />
    <g
       id="g265">
      <rect
         style="color:#000000;clip-rule:nonzero;display:inline;overflow:visible;visibility:visible;opacity:0.9;isolation:auto;mix-blend-mode:normal;color-interpolation:sRGB;color-interpolation-filters:linearRGB;solid-color:#000000;solid-opacity:1;fill:url(#radialGradient3988-3-3);fill-opacity:1;fill-rule:nonzero;stroke:none;stroke-width:1;stroke-linecap:butt;stroke-linejoin:miter;stroke-miterlimit:4;stroke-dasharray:none;stroke-dashoffset:0;stroke-opacity:1;marker:none;color-rendering:auto;image-rendering:auto;shape-rendering:auto;text-rendering:auto;enable-background:accumulate"
         id="rect5505-21-7"
         y="1.4999985"
         x="1.5000014"
         ry="1"
         rx="1"
         height="13"
         width="13" />
      <rect
         style="opacity:0.3;fill:none;stroke:url(#linearGradient3896);stroke-width:1;stroke-linecap:round;stroke-linejoin:round;stroke-miterlimit:4;stroke-dasharray:none;stroke-dashoffset:0;stroke-opacity:1"
         id="rect6741-0-3"
         y="2.4999969"
         x="2.5"
         height="11"
         width="11" />
      <rect
         style="color:#000000;display:inline;overflow:visible;visibility:visible;opacity:0.7;fill:none;stroke:#000000;stroke-width:1;stroke-linecap:round;stroke-linejoin:round;stroke-miterlimit:4;stroke-dasharray:none;stroke-dashoffset:0;stroke-opacity:1;marker:none;enable-background:accumulate"
         id="rect5505-21-2-8-5"
         y="1.499997"
         x="1.5"
         ry="1"
         rx="1"
         height="13.000003"
         width="13.000003" />
      <path
         style="color:#000000;font-style:normal;font-variant:normal;font-weight:bold;font-stretch:normal;font-size:5.92781px;line-height:125%;font-family:'Open Sans';-inkscape-font-specification:'Open Sans Bold';letter-spacing:0px;word-spacing:0px;clip-rule:nonzero;display:inline;overflow:visible;visibility:visible;opacity:0.15;isolation:auto;mix-blend-mode:normal;color-interpolation:sRGB;color-interpolation-filters:linearRGB;solid-color:#000000;solid-opacity:1;fill:#000000;fill-opacity:1;fill-rule:nonzero;stroke:none;stroke-width:1;stroke-linecap:butt;stroke-linejoin:miter;stroke-miterlimit:4;stroke-dasharray:none;stroke-dashoffset:0;stroke-opacity:1;marker:none;color-rendering:auto;image-rendering:auto;shape-rendering:auto;text-rendering:auto;enable-background:accumulate"
         d="m 4.0253906,3.0097656 a 1.0001,1.0001 0 0 0 -1,1 v 0.3242188 c -0.06405,0.036476 -0.1283162,0.037179 -0.1914062,0.082031 a 1.0001,1.0001 0 0 0 -0.00195,0.00195 c -0.535343,0.3834938 -0.8691406,1.0590693 -0.8691406,1.6992187 0,0.3418605 0.08177,0.7178308 0.2851563,1.0488281 0.02667,0.043406 0.070359,0.066492 0.099609,0.1074219 C 2.1394832,7.4648741 1.911273,7.6752843 1.908206,7.9980435 a 1.0001,1.0001 0 0 0 0,0.00977 v 0.7636719 c -0.0018,0.47957 0.338526,0.874187 0.6875,1.0175781 v 0.00195 c 0.144036,0.0593 0.2856555,0.051584 0.4296875,0.089844 v 0.1289065 a 1.0001,1.0001 0 0 0 1,1 h 1 a 1.0001,1.0001 0 0 0 1,-1 V 9.6875 C 6.073769,9.6606976 6.1232955,9.6492219 6.171875,9.6269531 6.1004174,9.7639113 6.0498349,9.9113421 6.0507812,10.066406 v 1 c 0.0077,0.505097 0.4636531,0.961069 0.96875,0.96875 h 3.9999998 c 0.505097,-0.0077 0.961069,-0.463653 0.96875,-0.96875 v -1 C 11.980581,9.5613091 11.524628,9.1053372 11.019531,9.0976562 H 7.0195312 c -0.06231,-0.006 -0.1251899,-0.006 -0.1875,0 -0.058279,0.012262 -0.1097131,0.043104 -0.1640624,0.066406 C 6.9575669,8.7943977 7.1425781,8.3355037 7.1425781,7.875 c 0,-0.4797273 -0.1807536,-0.9984925 -0.5253906,-1.375 -0.005,-0.00553 -0.012518,-0.00627 -0.017578,-0.011719 0.02627,-0.040679 0.075376,-0.043886 0.097656,-0.089844 l 0.3125,-0.6347656 C 7.1481476,5.4821183 7.1514311,5.1072368 7.0175781,4.8222656 6.8837311,4.5372944 6.6454639,4.3491357 6.4042969,4.2578125 a 1.0001,1.0001 0 0 0 -0.00977,-0.00391 C 6.2718463,4.2089213 6.1483906,4.1823331 6.0253906,4.1445312 V 4.0097656 a 1.0001,1.0001 0 0 0 -1,-1 z"
         id="path4218" />
      <path
         style="color:#000000;font-style:normal;font-variant:normal;font-weight:bold;font-stretch:normal;font-size:14.3117px;line-height:125%;font-family:'Open Sans';-inkscape-font-specification:'Open Sans Bold';letter-spacing:0px;word-spacing:0px;display:inline;overflow:visible;visibility:visible;opacity:0.3;fill:#000000;fill-opacity:1;fill-rule:nonzero;stroke:none;marker:none;enable-background:accumulate"
         d="m 4.0253906,4.0097656 v 0.9707032 c -0.233635,0.052246 -0.4430711,0.1303827 -0.6113281,0.25 -0.300738,0.2154332 -0.4511719,0.5201833 -0.4511719,0.8867187 0,0.1954364 0.042931,0.3727478 0.1367188,0.5253906 0.09093,0.1479895 0.2141334,0.2761346 0.3652344,0.3867188 0.153719,0.1125002 0.3709651,0.2237212 0.6582031,0.3378906 0.298536,0.1200169 0.4979721,0.2090806 0.5800781,0.2558594 a 0.11763009,0.09944686 0 0 0 0.00195,0 c 0.08902,0.049637 0.1515633,0.1007188 0.1914063,0.1484375 a 0.11763009,0.09944686 0 0 0 0,0.00195 c 0.0369,0.042892 0.056641,0.085462 0.056641,0.1425781 0,0.1125112 -0.04112,0.1751095 -0.1269531,0.2265625 -0.08509,0.05196 -0.222963,0.087891 -0.421875,0.087891 -0.165942,0 -0.354098,-0.024133 -0.5625,-0.070313 C 3.6372719,8.1143863 3.3812478,8.0337227 3.0742188,7.9179688 a 0.11763009,0.09944686 0 0 0 -0.1660157,0.089844 v 0.7675781 a 0.11763009,0.09944686 0 0 0 0.066406,0.089844 c 0.312486,0.129162 0.6696672,0.1903769 1.0507812,0.2167968 v 0.9277343 h 1 V 9.0332031 c 0.238609,-0.05341 0.4504419,-0.13285 0.6230469,-0.25 C 5.9743815,8.5635251 6.1425781,8.2502627 6.1425781,7.875 c 0,-0.2710357 -0.08509,-0.5086162 -0.2617187,-0.7011719 C 5.7014584,6.9763167 5.392085,6.7985004 4.953125,6.6210938 4.630605,6.4909181 4.4226134,6.3983553 4.3496094,6.3574219 h -0.00195 c -0.07518,-0.045342 -0.127786,-0.092864 -0.15625,-0.1308594 -0.02739,-0.038325 -0.041016,-0.07978 -0.041016,-0.1367187 0,-0.093141 0.032441,-0.1536838 0.1074219,-0.2089844 0.07145,-0.052691 0.1814593,-0.085936 0.3476563,-0.085937 0.1443279,0 0.2936564,0.016775 0.4453124,0.048828 0.153072,0.031932 0.351817,0.089916 0.59375,0.1738281 A 0.11763009,0.09944686 0 0 0 5.796875,5.9628906 L 6.1113281,5.3222656 A 0.11763009,0.09944686 0 0 0 6.0507812,5.1933594 C 5.8088903,5.1046824 5.5747724,5.0337946 5.3496094,4.984375 5.2464024,4.9615026 5.1330446,4.9632499 5.0253906,4.9511719 V 4.0097656 Z m 2.9941406,6.0566404 v 1 h 3.9999998 v -1 z"
         id="path4214" />
      <path
         style="color:#000000;font-style:normal;font-variant:normal;font-weight:bold;font-stretch:normal;font-size:14.3117px;line-height:125%;font-family:'Open Sans';-inkscape-font-specification:'Open Sans Bold';letter-spacing:0px;word-spacing:0px;clip-rule:nonzero;display:inline;overflow:visible;visibility:visible;opacity:1;isolation:auto;mix-blend-mode:normal;color-interpolation:sRGB;color-interpolation-filters:linearRGB;solid-color:#000000;solid-opacity:1;fill:#ffffff;fill-opacity:1;fill-rule:nonzero;stroke:none;stroke-width:5;stroke-linecap:butt;stroke-linejoin:miter;stroke-miterlimit:4;stroke-dasharray:none;stroke-dashoffset:0;stroke-opacity:1;marker:none;color-rendering:auto;image-rendering:auto;shape-rendering:auto;text-rendering:auto;enable-background:accumulate"
         d="m 4.0253906,3.0097656 v 0.9707032 c -0.233635,0.052246 -0.4430711,0.1303829 -0.6113281,0.25 -0.300738,0.2154332 -0.4511719,0.5201834 -0.4511719,0.8867187 0,0.1954364 0.042931,0.3727478 0.1367188,0.5253906 0.09093,0.1479895 0.2141334,0.2761345 0.3652344,0.3867188 0.153719,0.1125002 0.3709651,0.2237212 0.6582031,0.3378906 0.298536,0.1200169 0.4979721,0.2090806 0.5800781,0.2558594 a 0.11763009,0.09944686 0 0 0 0.00195,0 c 0.08902,0.049637 0.1515643,0.1007188 0.1914063,0.1484375 a 0.11763009,0.09944686 0 0 0 0,0.00195 c 0.0369,0.042892 0.056641,0.085462 0.056641,0.1425781 0,0.112511 -0.04112,0.1751085 -0.1269531,0.2265625 -0.08509,0.051958 -0.222963,0.087891 -0.421875,0.087891 -0.165942,0 -0.354098,-0.024129 -0.5625,-0.070313 C 3.6372209,7.1143871 3.3812477,7.0337224 3.0742188,6.9179688 a 0.11763009,0.09944686 0 0 0 -0.1660157,0.089844 v 0.7675781 a 0.11763009,0.09944686 0 0 0 0.066406,0.089844 c 0.312486,0.1291552 0.6696672,0.1903768 1.0507812,0.2167968 v 0.9277344 h 1 v -0.976563 c 0.238609,-0.053412 0.4504419,-0.1328493 0.6230469,-0.25 C 5.9743815,7.5635267 6.1425781,7.250263 6.1425781,6.875 c 0,-0.2710357 -0.08509,-0.5086162 -0.2617187,-0.7011719 C 5.7015074,5.9763167 5.392085,5.7985004 4.953125,5.6210938 4.630605,5.4909181 4.4226134,5.3983552 4.3496094,5.3574219 h -0.00195 c -0.07518,-0.045342 -0.127786,-0.092864 -0.15625,-0.1308594 -0.02739,-0.038325 -0.041016,-0.07978 -0.041016,-0.1367187 0,-0.093141 0.032441,-0.1536838 0.1074219,-0.2089844 0.07145,-0.052691 0.1814593,-0.085936 0.3476563,-0.085937 0.1443279,0 0.2936564,0.016775 0.4453124,0.048828 0.153072,0.031932 0.351817,0.089916 0.59375,0.1738281 A 0.11763009,0.09944686 0 0 0 5.796875,4.9628906 L 6.1113281,4.3222656 A 0.11763009,0.09944686 0 0 0 6.0507812,4.1933594 C 5.8088903,4.1046824 5.5747724,4.0337946 5.3496094,3.984375 5.2464024,3.9615027 5.1330446,3.96325 5.0253906,3.9511719 V 3.0097656 Z M 7.0195312,9.0644531 V 10.064453 H 11.019531 V 9.0644531 Z"
         id="path3866" />
      <rect
         style="fill:#4da825;fill-opacity:1"
         id="rect5275"
         width="4"
         height="1.0019531"
         x="7.0195312"
         y="9.0644531" />
    </g>
  </g>
  <style
     type="text/css"
     id="style22">
	.st0{fill:#FFFFFF;}
</style>
  <style
     type="text/css"
     id="style116">
	.Drop_x0020_Shadow{fill:none;}
	.Round_x0020_Corners_x0020_2_x0020_pt{fill:#FFFFFF;stroke:#1B1B1F;stroke-miterlimit:10;}
	.Live_x0020_Reflect_x0020_X{fill:none;}
	.Bevel_x0020_Soft{fill:url(#SVGID_1_);}
	.Dusk{fill:#FFFFFF;}
	.Foliage_GS{fill:#FFDC00;}
	.Pompadour_GS{fill-rule:evenodd;clip-rule:evenodd;fill:#58AEE2;}
	.st0{fill:none;}
	.st1{fill:#FFFFFF;}
	.st2{fill:#283037;}
	.st3{fill:#4DA825;}
</style>
  <style
     type="text/css"
     id="style188">
	.st0{fill:#FFFFFF;}
</style>
  <style
     type="text/css"
     id="style347">
	.Drop_x0020_Shadow{fill:none;}
	.Round_x0020_Corners_x0020_2_x0020_pt{fill:#FFFFFF;stroke:#1B1B1F;stroke-miterlimit:10;}
	.Live_x0020_Reflect_x0020_X{fill:none;}
	.Bevel_x0020_Soft{fill:url(#SVGID_1_);}
	.Dusk{fill:#FFFFFF;}
	.Foliage_GS{fill:#FFDC00;}
	.Pompadour_GS{fill-rule:evenodd;clip-rule:evenodd;fill:#58AEE2;}
	.st0{fill:none;}
	.st1{fill:#FFFFFF;}
	.st2{fill:#283037;}
	.st3{fill:#4DA825;}
</style>
</svg>
