<?xml version="1.0" encoding="UTF-8" standalone="no"?>
<svg
   xmlns:dc="http://purl.org/dc/elements/1.1/"
   xmlns:cc="http://creativecommons.org/ns#"
   xmlns:rdf="http://www.w3.org/1999/02/22-rdf-syntax-ns#"
   xmlns:svg="http://www.w3.org/2000/svg"
   xmlns="http://www.w3.org/2000/svg"
   height="16"
   width="16"
   version="1.1"
   id="svg8">
  <metadata
     id="metadata14">
    <rdf:RDF>
      <cc:Work
         rdf:about="">
        <dc:format>image/svg+xml</dc:format>
        <dc:type
           rdf:resource="http://purl.org/dc/dcmitype/StillImage" />
        <dc:title></dc:title>
      </cc:Work>
    </rdf:RDF>
  </metadata>
  <defs
     id="defs12" />
  <g
     id="g252"
     transform="translate(-61.830508,-61.830508)">
    <path
       id="path876"
       transform="translate(61.830508,61.830508)"
       d="M 3 0 L 3 2 L 2.5 2 A 0.5 0.5 0 0 0 2.4648438 2.0019531 A 0.5 0.5 0 0 0 2.4160156 2.0078125 A 0.5 0.5 0 0 0 2.4140625 2.0078125 A 0.5 0.5 0 0 0 2.3671875 2.0175781 A 0.5 0.5 0 0 0 2.3203125 2.0332031 A 0.5 0.5 0 0 0 2.3183594 2.0332031 A 0.5 0.5 0 0 0 2.2734375 2.0546875 A 0.5 0.5 0 0 0 2.2304688 2.0800781 A 0.5 0.5 0 0 0 2.1894531 2.1074219 A 0.5 0.5 0 0 0 2.1523438 2.140625 A 0.5 0.5 0 0 0 2.1171875 2.1777344 A 0.5 0.5 0 0 0 2.0878906 2.2167969 A 0.5 0.5 0 0 0 2.0605469 2.2597656 A 0.5 0.5 0 0 0 2.0390625 2.3046875 A 0.5 0.5 0 0 0 2.0214844 2.3515625 A 0.5 0.5 0 0 0 2.0097656 2.4003906 A 0.5 0.5 0 0 0 2.0019531 2.4492188 A 0.5 0.5 0 0 0 2 2.5 L 2 3 L 0 3 L 0 4 L 2 4 L 2 6 L 0 6 L 0 7 L 2 7 L 2 9 L 0 9 L 0 10 L 2 10 L 2 12 L 0 12 L 0 13 L 2 13 L 2 13.5 A 0.5 0.5 0 0 0 2.0019531 13.535156 A 0.5 0.5 0 0 0 2.0078125 13.583984 A 0.5 0.5 0 0 0 2.0078125 13.585938 A 0.5 0.5 0 0 0 2.0175781 13.632812 A 0.5 0.5 0 0 0 2.0332031 13.679688 A 0.5 0.5 0 0 0 2.0332031 13.681641 A 0.5 0.5 0 0 0 2.0546875 13.726562 A 0.5 0.5 0 0 0 2.0800781 13.769531 A 0.5 0.5 0 0 0 2.1074219 13.810547 A 0.5 0.5 0 0 0 2.140625 13.847656 A 0.5 0.5 0 0 0 2.1777344 13.882812 A 0.5 0.5 0 0 0 2.2167969 13.912109 A 0.5 0.5 0 0 0 2.2597656 13.939453 A 0.5 0.5 0 0 0 2.3046875 13.960938 A 0.5 0.5 0 0 0 2.3515625 13.978516 A 0.5 0.5 0 0 0 2.4003906 13.990234 A 0.5 0.5 0 0 0 2.4492188 13.998047 A 0.5 0.5 0 0 0 2.5 14 L 3 14 L 3 16 L 4 16 L 4 14 L 6 14 L 6 16 L 7 16 L 7 14 L 9 14 L 9 16 L 10 16 L 10 14 L 12 14 L 12 16 L 13 16 L 13 14 L 13.5 14 A 0.5 0.5 0 0 0 13.535156 13.998047 A 0.5 0.5 0 0 0 13.583984 13.992188 A 0.5 0.5 0 0 0 13.585938 13.992188 A 0.5 0.5 0 0 0 13.632812 13.982422 A 0.5 0.5 0 0 0 13.679688 13.966797 A 0.5 0.5 0 0 0 13.681641 13.966797 A 0.5 0.5 0 0 0 13.726562 13.945312 A 0.5 0.5 0 0 0 13.769531 13.919922 A 0.5 0.5 0 0 0 13.810547 13.892578 A 0.5 0.5 0 0 0 13.847656 13.859375 A 0.5 0.5 0 0 0 13.882812 13.822266 A 0.5 0.5 0 0 0 13.912109 13.783203 A 0.5 0.5 0 0 0 13.939453 13.740234 A 0.5 0.5 0 0 0 13.960938 13.695312 A 0.5 0.5 0 0 0 13.978516 13.648438 A 0.5 0.5 0 0 0 13.990234 13.599609 A 0.5 0.5 0 0 0 13.998047 13.550781 A 0.5 0.5 0 0 0 14 13.5 L 14 13 L 16 13 L 16 12 L 14 12 L 14 10 L 16 10 L 16 9 L 14 9 L 14 7 L 16 7 L 16 6 L 14 6 L 14 4 L 16 4 L 16 3 L 14 3 L 14 2.5 A 0.5 0.5 0 0 0 13.998047 2.4648438 A 0.5 0.5 0 0 0 13.992188 2.4160156 A 0.5 0.5 0 0 0 13.992188 2.4140625 A 0.5 0.5 0 0 0 13.982422 2.3671875 A 0.5 0.5 0 0 0 13.966797 2.3203125 A 0.5 0.5 0 0 0 13.966797 2.3183594 A 0.5 0.5 0 0 0 13.945312 2.2734375 A 0.5 0.5 0 0 0 13.919922 2.2304688 A 0.5 0.5 0 0 0 13.892578 2.1894531 A 0.5 0.5 0 0 0 13.859375 2.1523438 A 0.5 0.5 0 0 0 13.822266 2.1171875 A 0.5 0.5 0 0 0 13.783203 2.0878906 A 0.5 0.5 0 0 0 13.740234 2.0605469 A 0.5 0.5 0 0 0 13.695312 2.0390625 A 0.5 0.5 0 0 0 13.648438 2.0214844 A 0.5 0.5 0 0 0 13.599609 2.0097656 A 0.5 0.5 0 0 0 13.550781 2.0019531 A 0.5 0.5 0 0 0 13.5 2 L 13 2 L 13 0 L 12 0 L 12 2 L 10 2 L 10 0 L 9 0 L 9 2 L 7 2 L 7 0 L 6 0 L 6 2 L 4 2 L 4 0 L 3 0 z M 3.5 3 L 12.5 3 A 0.5 0.5 0 0 1 12.550781 3.0019531 A 0.5 0.5 0 0 1 12.599609 3.0097656 A 0.5 0.5 0 0 1 12.648438 3.0214844 A 0.5 0.5 0 0 1 12.695312 3.0390625 A 0.5 0.5 0 0 1 12.740234 3.0605469 A 0.5 0.5 0 0 1 12.783203 3.0878906 A 0.5 0.5 0 0 1 12.822266 3.1171875 A 0.5 0.5 0 0 1 12.859375 3.1523438 A 0.5 0.5 0 0 1 12.892578 3.1894531 A 0.5 0.5 0 0 1 12.919922 3.2304688 A 0.5 0.5 0 0 1 12.945312 3.2734375 A 0.5 0.5 0 0 1 12.966797 3.3183594 A 0.5 0.5 0 0 0 12.966797 3.3203125 A 0.5 0.5 0 0 1 12.982422 3.3671875 A 0.5 0.5 0 0 1 12.992188 3.4140625 A 0.5 0.5 0 0 0 12.992188 3.4160156 A 0.5 0.5 0 0 1 12.998047 3.4648438 A 0.5 0.5 0 0 1 13 3.5 L 13 12.5 A 0.5 0.5 0 0 1 12.998047 12.550781 A 0.5 0.5 0 0 1 12.990234 12.599609 A 0.5 0.5 0 0 1 12.978516 12.648438 A 0.5 0.5 0 0 1 12.960938 12.695312 A 0.5 0.5 0 0 1 12.939453 12.740234 A 0.5 0.5 0 0 1 12.912109 12.783203 A 0.5 0.5 0 0 1 12.882812 12.822266 A 0.5 0.5 0 0 1 12.847656 12.859375 A 0.5 0.5 0 0 1 12.810547 12.892578 A 0.5 0.5 0 0 1 12.769531 12.919922 A 0.5 0.5 0 0 1 12.726562 12.945312 A 0.5 0.5 0 0 1 12.681641 12.966797 A 0.5 0.5 0 0 0 12.679688 12.966797 A 0.5 0.5 0 0 1 12.632812 12.982422 A 0.5 0.5 0 0 1 12.585938 12.992188 A 0.5 0.5 0 0 0 12.583984 12.992188 A 0.5 0.5 0 0 1 12.535156 12.998047 A 0.5 0.5 0 0 1 12.5 13 L 3.5 13 A 0.5 0.5 0 0 1 3.4492188 12.998047 A 0.5 0.5 0 0 1 3.4003906 12.990234 A 0.5 0.5 0 0 1 3.3515625 12.978516 A 0.5 0.5 0 0 1 3.3046875 12.960938 A 0.5 0.5 0 0 1 3.2597656 12.939453 A 0.5 0.5 0 0 1 3.2167969 12.912109 A 0.5 0.5 0 0 1 3.1777344 12.882812 A 0.5 0.5 0 0 1 3.140625 12.847656 A 0.5 0.5 0 0 1 3.1074219 12.810547 A 0.5 0.5 0 0 1 3.0800781 12.769531 A 0.5 0.5 0 0 1 3.0546875 12.726562 A 0.5 0.5 0 0 1 3.0332031 12.681641 A 0.5 0.5 0 0 0 3.0332031 12.679688 A 0.5 0.5 0 0 1 3.0175781 12.632812 A 0.5 0.5 0 0 1 3.0078125 12.585938 A 0.5 0.5 0 0 0 3.0078125 12.583984 A 0.5 0.5 0 0 1 3.0019531 12.535156 A 0.5 0.5 0 0 1 3 12.5 L 3 3.5 A 0.5 0.5 0 0 1 3.0019531 3.4492188 A 0.5 0.5 0 0 1 3.0097656 3.4003906 A 0.5 0.5 0 0 1 3.0214844 3.3515625 A 0.5 0.5 0 0 1 3.0390625 3.3046875 A 0.5 0.5 0 0 1 3.0605469 3.2597656 A 0.5 0.5 0 0 1 3.0878906 3.2167969 A 0.5 0.5 0 0 1 3.1171875 3.1777344 A 0.5 0.5 0 0 1 3.1523438 3.140625 A 0.5 0.5 0 0 1 3.1894531 3.1074219 A 0.5 0.5 0 0 1 3.2304688 3.0800781 A 0.5 0.5 0 0 1 3.2734375 3.0546875 A 0.5 0.5 0 0 1 3.3183594 3.0332031 A 0.5 0.5 0 0 0 3.3203125 3.0332031 A 0.5 0.5 0 0 1 3.3671875 3.0175781 A 0.5 0.5 0 0 1 3.4140625 3.0078125 A 0.5 0.5 0 0 0 3.4160156 3.0078125 A 0.5 0.5 0 0 1 3.4648438 3.0019531 A 0.5 0.5 0 0 1 3.5 3 z M 4.5 4 A 0.5 0.5 0 0 0 4.4648438 4.0019531 A 0.5 0.5 0 0 0 4.4140625 4.0078125 A 0.5 0.5 0 0 0 4.3671875 4.0175781 A 0.5 0.5 0 0 0 4.3183594 4.0332031 A 0.5 0.5 0 0 0 4.2734375 4.0546875 A 0.5 0.5 0 0 0 4.2304688 4.0800781 A 0.5 0.5 0 0 0 4.1894531 4.1074219 A 0.5 0.5 0 0 0 4.1523438 4.140625 A 0.5 0.5 0 0 0 4.1171875 4.1777344 A 0.5 0.5 0 0 0 4.0878906 4.2167969 A 0.5 0.5 0 0 0 4.0605469 4.2597656 A 0.5 0.5 0 0 0 4.0390625 4.3046875 A 0.5 0.5 0 0 0 4.0214844 4.3515625 A 0.5 0.5 0 0 0 4.0097656 4.4003906 A 0.5 0.5 0 0 0 4.0019531 4.4492188 A 0.5 0.5 0 0 0 4 4.5 L 4 11.5 A 0.5 0.5 0 0 0 4.0019531 11.535156 A 0.5 0.5 0 0 0 4.0078125 11.585938 A 0.5 0.5 0 0 0 4.0175781 11.632812 A 0.5 0.5 0 0 0 4.0332031 11.681641 A 0.5 0.5 0 0 0 4.0546875 11.726562 A 0.5 0.5 0 0 0 4.0800781 11.769531 A 0.5 0.5 0 0 0 4.1074219 11.810547 A 0.5 0.5 0 0 0 4.140625 11.847656 A 0.5 0.5 0 0 0 4.1777344 11.882812 A 0.5 0.5 0 0 0 4.2167969 11.912109 A 0.5 0.5 0 0 0 4.2597656 11.939453 A 0.5 0.5 0 0 0 4.3046875 11.960938 A 0.5 0.5 0 0 0 4.3515625 11.978516 A 0.5 0.5 0 0 0 4.4003906 11.990234 A 0.5 0.5 0 0 0 4.4492188 11.998047 A 0.5 0.5 0 0 0 4.5 12 L 11.5 12 A 0.5 0.5 0 0 0 11.535156 11.998047 A 0.5 0.5 0 0 0 11.585938 11.992188 A 0.5 0.5 0 0 0 11.632812 11.982422 A 0.5 0.5 0 0 0 11.681641 11.966797 A 0.5 0.5 0 0 0 11.726562 11.945312 A 0.5 0.5 0 0 0 11.769531 11.919922 A 0.5 0.5 0 0 0 11.810547 11.892578 A 0.5 0.5 0 0 0 11.847656 11.859375 A 0.5 0.5 0 0 0 11.882812 11.822266 A 0.5 0.5 0 0 0 11.912109 11.783203 A 0.5 0.5 0 0 0 11.939453 11.740234 A 0.5 0.5 0 0 0 11.960938 11.695312 A 0.5 0.5 0 0 0 11.978516 11.648438 A 0.5 0.5 0 0 0 11.990234 11.599609 A 0.5 0.5 0 0 0 11.998047 11.550781 A 0.5 0.5 0 0 0 12 11.5 L 12 4.5 A 0.5 0.5 0 0 0 11.998047 4.4648438 A 0.5 0.5 0 0 0 11.992188 4.4140625 A 0.5 0.5 0 0 0 11.982422 4.3671875 A 0.5 0.5 0 0 0 11.966797 4.3183594 A 0.5 0.5 0 0 0 11.945312 4.2734375 A 0.5 0.5 0 0 0 11.919922 4.2304688 A 0.5 0.5 0 0 0 11.892578 4.1894531 A 0.5 0.5 0 0 0 11.859375 4.1523438 A 0.5 0.5 0 0 0 11.822266 4.1171875 A 0.5 0.5 0 0 0 11.783203 4.0878906 A 0.5 0.5 0 0 0 11.740234 4.0605469 A 0.5 0.5 0 0 0 11.695312 4.0390625 A 0.5 0.5 0 0 0 11.648438 4.0214844 A 0.5 0.5 0 0 0 11.599609 4.0097656 A 0.5 0.5 0 0 0 11.550781 4.0019531 A 0.5 0.5 0 0 0 11.5 4 L 4.5 4 z M 10.5 5 C 10.776142 5 11 5.2238576 11 5.5 C 11 5.7761424 10.776142 6 10.5 6 C 10.223858 6 10 5.7761424 10 5.5 C 10 5.2238576 10.223858 5 10.5 5 z "
       style="stroke-width:1.20000005" />
    <circle
       r="1"
       cy="66.299255"
       cx="81.03363"
       id="path818"
       style="fill:#00ff00;stroke:none" />
  </g>
</svg>
