<?xml version="1.0" encoding="UTF-8" standalone="no"?>
<svg
   xmlns:dc="http://purl.org/dc/elements/1.1/"
   xmlns:cc="http://creativecommons.org/ns#"
   xmlns:rdf="http://www.w3.org/1999/02/22-rdf-syntax-ns#"
   xmlns:svg="http://www.w3.org/2000/svg"
   xmlns="http://www.w3.org/2000/svg"
   xmlns:sodipodi="http://sodipodi.sourceforge.net/DTD/sodipodi-0.dtd"
   xmlns:inkscape="http://www.inkscape.org/namespaces/inkscape"
   height="16"
   width="16"
   version="1.1"
   id="svg6"
   sodipodi:docname="file-deleted-symbolic.svg"
   inkscape:version="0.92.5 (0.92.5+68)">
  <metadata
     id="metadata12">
    <rdf:RDF>
      <cc:Work
         rdf:about="">
        <dc:format>image/svg+xml</dc:format>
        <dc:type
           rdf:resource="http://purl.org/dc/dcmitype/StillImage" />
      </cc:Work>
    </rdf:RDF>
  </metadata>
  <defs
     id="defs10" />
  <sodipodi:namedview
     pagecolor="#ffffff"
     bordercolor="#666666"
     borderopacity="1"
     objecttolerance="10"
     gridtolerance="10"
     guidetolerance="10"
     inkscape:pageopacity="0"
     inkscape:pageshadow="2"
     inkscape:window-width="1920"
     inkscape:window-height="1017"
     id="namedview8"
     showgrid="true"
     inkscape:snap-bbox="true"
     inkscape:bbox-paths="true"
     inkscape:bbox-nodes="true"
     inkscape:zoom="45.254834"
     inkscape:cx="5.5892235"
     inkscape:cy="6.4679153"
     inkscape:window-x="0"
     inkscape:window-y="30"
     inkscape:window-maximized="1"
     inkscape:current-layer="g4644">
    <inkscape:grid
       type="xygrid"
       id="grid4522" />
  </sodipodi:namedview>
  <g
     transform="translate(-1113.027 186.98)"
     id="g4"
     color="#bebebe">
    <path
       d="M1116.027-186.98c-.554 0-1 .446-1 1v14c0 .554.446 1 1 1h10c.554 0 1-.446 1-1v-10c0-.554-4.446-5-5-5zm.5 1h5.5v4h4v9.5c0 .277-.223.5-.5.5h-9a.499.499 0 0 1-.5-.5v-13c0-.277.223-.5.5-.5z"
       overflow="visible"
       style="marker:none"
       id="path2"
       fill="#666" />
  </g>
  <g
     id="g4649"
     transform="matrix(2.2300711,0,0,2.2300711,-16.813662,-19.317998)"
     style="fill:#666666;fill-opacity:1">
    <g
       id="g4644"
       style="fill:#666666;fill-opacity:1"
       transform="matrix(0.77540299,0,0,0.77540299,2.5016927,2.8235675)">
      <g
         id="g4729"
         transform="translate(0.57830016,0.57830237)">
        <rect
           transform="rotate(-45)"
           y="16.052561"
           x="-3.5929928"
           height="0.81783861"
           width="4.0892053"
           id="rect4625"
           style="opacity:1;fill:#666666;fill-opacity:1;stroke:none;stroke-width:2.57587695;stroke-linejoin:round;stroke-miterlimit:4;stroke-dasharray:none;stroke-opacity:1" />
        <rect
           transform="rotate(45)"
           y="1.13947"
           x="14.416879"
           height="0.8178407"
           width="4.0892053"
           id="rect4625-8"
           style="opacity:1;fill:#666666;fill-opacity:1;stroke:none;stroke-width:2.57587695;stroke-linejoin:round;stroke-miterlimit:4;stroke-dasharray:none;stroke-opacity:1" />
      </g>
    </g>
  </g>
</svg>
