<?xml version="1.0" encoding="UTF-8" standalone="no"?>
<svg
   height="16"
   width="16"
   version="1.1"
   id="svg8"
   sodipodi:docname="gpu-vram-symbolic.svg"
   xml:space="preserve"
   inkscape:version="1.3.2 (091e20ef0f, 2023-11-25)"
   xmlns:inkscape="http://www.inkscape.org/namespaces/inkscape"
   xmlns:sodipodi="http://sodipodi.sourceforge.net/DTD/sodipodi-0.dtd"
   xmlns="http://www.w3.org/2000/svg"
   xmlns:svg="http://www.w3.org/2000/svg"
   xmlns:rdf="http://www.w3.org/1999/02/22-rdf-syntax-ns#"
   xmlns:cc="http://creativecommons.org/ns#"
   xmlns:dc="http://purl.org/dc/elements/1.1/"><sodipodi:namedview
     id="namedview10"
     pagecolor="#ffffff"
     bordercolor="#666666"
     borderopacity="1.0"
     inkscape:showpageshadow="2"
     inkscape:pageopacity="0.0"
     inkscape:pagecheckerboard="0"
     inkscape:deskcolor="#d1d1d1"
     showgrid="true"
     inkscape:zoom="4"
     inkscape:cx="-131.125"
     inkscape:cy="-23.5"
     inkscape:window-width="2560"
     inkscape:window-height="1379"
     inkscape:window-x="0"
     inkscape:window-y="30"
     inkscape:window-maximized="1"
     inkscape:current-layer="text1"><inkscape:grid
       type="xygrid"
       id="grid116"
       originx="0"
       originy="0"
       spacingy="1"
       spacingx="1"
       units="px"
       visible="true" /></sodipodi:namedview><metadata
     id="metadata14"><rdf:RDF><cc:Work
         rdf:about=""><dc:format>image/svg+xml</dc:format><dc:type
           rdf:resource="http://purl.org/dc/dcmitype/StillImage" /><dc:title /></cc:Work></rdf:RDF></metadata><defs
     id="defs12"><linearGradient
       id="linearGradient2357"
       inkscape:swatch="solid"><stop
         style="stop-color:#ffffff;stop-opacity:1;"
         offset="0"
         id="stop2355" /></linearGradient></defs><rect
     style="fill:#000000;fill-opacity:1;stroke:none;stroke-width:1.37953"
     id="rect336"
     width="3"
     height="1"
     x="0"
     y="3" /><rect
     style="fill:#000000;fill-opacity:1;stroke:none;stroke-width:1.45415"
     id="rect338"
     width="1"
     height="10"
     x="2"
     y="4" /><rect
     style="fill:#000000;fill-opacity:1;stroke:none;stroke-width:1.0123"
     id="rect342"
     width="7"
     height="1"
     x="3"
     y="4" /><rect
     style="fill:#000000;fill-opacity:1;stroke:none;stroke-width:1.0123"
     id="rect344"
     width="7"
     height="1"
     x="3"
     y="10" /><rect
     style="fill:#000000;fill-opacity:1;stroke:none;stroke-width:1.29043"
     id="rect346"
     width="7"
     height="1"
     x="3"
     y="12" /><rect
     style="fill:#000000;fill-opacity:1;stroke:none;stroke-width:0.689765"
     id="rect350-3"
     width="1"
     height="1"
     x="4"
     y="11" /><rect
     style="fill:#000000;fill-opacity:1;stroke:none;stroke-width:0.689765"
     id="rect350-3-6"
     width="1"
     height="1"
     x="6"
     y="11" /><rect
     style="fill:#000000;fill-opacity:1;stroke:none;stroke-width:0.689765"
     id="rect350-3-7"
     width="1"
     height="1"
     x="8"
     y="11" /><rect
     style="fill:#000000;fill-opacity:1;stroke:none;stroke-width:1.78097"
     id="rect387"
     width="5"
     height="1"
     x="4"
     y="6" /><rect
     style="fill:#000000;fill-opacity:1;stroke:none;stroke-width:0.689765"
     id="rect350-3-2"
     width="1"
     height="1"
     x="4"
     y="7" /><rect
     style="fill:#000000;fill-opacity:1;stroke:none;stroke-width:0.689765"
     id="rect350-3-2-1"
     width="1"
     height="1"
     x="6"
     y="7" /><rect
     style="fill:#000000;fill-opacity:1;stroke:none;stroke-width:0.689765"
     id="rect350-3-2-2"
     width="1"
     height="1"
     x="8"
     y="7" /><path
     style="fill:#000000;fill-opacity:1;stroke:none;stroke-width:0.0609671"
     d="M 0.02209709,3.4913397 V 3.0052038 H 1.5026019 2.9831067 V 3.4913397 3.9774756 H 1.5026019 0.02209709 Z"
     id="path1302" /><path
     style="fill:#000000;fill-opacity:1;stroke:none;stroke-width:0.0609671"
     d="M 0.06629126,3.4913397 V 3.049398 H 1.5026019 2.9389126 V 3.4913397 3.9332815 H 1.5026019 0.06629126 Z"
     id="path1304" /><path
     style="fill:#000000;fill-opacity:1;stroke:none;stroke-width:0.0609671"
     d="M 2.0108349,8.9935144 V 4.0216698 H 2.4969708 2.9831067 V 8.9935144 13.965359 H 2.4969708 2.0108349 Z"
     id="path1789" /><path
     style="fill:#000000;fill-opacity:1;stroke:none;stroke-width:0.0792247"
     d="M 4,8.4861359 V 8 H 6.4999999 9 v 0.4861359 0.486136 H 6.4999999 4 Z"
     id="path1799" /><g
     id="text1"
     style="font-weight:900;font-size:5.66234px;line-height:0.75;font-family:Inter;-inkscape-font-specification:'Inter Heavy';text-align:center;text-anchor:middle;stroke-width:0.141558"
     transform="scale(1.0536457,0.9490856)"
     aria-label="V&#10;R&#10;A&#10;M"><path
       d="M 11.850989,-6.9358132e-7 H 10.439942 L 11.958838,3.1609372 h 1.707636 L 15.18537,-6.9358132e-7 H 13.774323 L 12.830631,2.2287075 h -0.03595 z"
       id="path5"
       style="stroke-width:0.1311" /><path
       d="m 10.439942,7.3755202 h 1.541155 V 6.342783 h 0.532198 l 0.997871,1.0327372 H 15.18537 L 14.032276,6.2083439 c 0.604266,-0.1604104 0.964609,-0.4644261 0.964609,-0.898298 0,-0.6660849 -0.845419,-1.0632915 -2.106617,-1.0632915 h -2.450326 z m 2.08444,-2.4504591 c 0.540514,0 0.864822,0.1161065 0.864822,0.3849848 0,0.2673506 -0.324308,0.3727631 -0.864822,0.3727631 H 11.981097 V 4.9250611 Z"
       id="path6"
       style="stroke-width:0.14487" /><path
       d="m 11.788719,11.565378 0.264965,-0.594132 h 1.517939 l 0.264965,0.594132 H 15.18387 L 13.665932,8.4613374 H 11.959374 L 10.441435,11.565378 Z M 12.79469,9.316161 h 0.03593 l 0.458073,1.024576 h -0.952079 z"
       id="path7"
       style="stroke-width:0.129874" /><path
       d="m 10.439941,12.643749 v 4.214581 h 1.093862 v -2.453018 h 0.03217 l 0.916913,2.420092 h 0.659534 l 0.916913,-2.403628 h 0.03217 v 2.436554 h 1.093862 v -4.214581 h -1.391456 l -0.957129,2.387165 h -0.04826 l -0.957129,-2.387165 z"
       id="path8"
       style="stroke-width:0.143207" /></g></svg>
