<?xml version="1.0" encoding="UTF-8" standalone="no"?>
<svg
   xmlns:dc="http://purl.org/dc/elements/1.1/"
   xmlns:cc="http://creativecommons.org/ns#"
   xmlns:rdf="http://www.w3.org/1999/02/22-rdf-syntax-ns#"
   xmlns:svg="http://www.w3.org/2000/svg"
   xmlns="http://www.w3.org/2000/svg"
   xmlns:sodipodi="http://sodipodi.sourceforge.net/DTD/sodipodi-0.dtd"
   xmlns:inkscape="http://www.inkscape.org/namespaces/inkscape"
   id="svg8"
   version="1.1"
   width="16"
   height="16"
   sodipodi:docname="swap-symbolic.svg"
   inkscape:version="0.92.4 (unknown)">
  <sodipodi:namedview
     pagecolor="#ffffff"
     bordercolor="#666666"
     borderopacity="1"
     objecttolerance="10"
     gridtolerance="10"
     guidetolerance="10"
     inkscape:pageopacity="0"
     inkscape:pageshadow="2"
     inkscape:window-width="1600"
     inkscape:window-height="837"
     id="namedview16"
     showgrid="true"
     inkscape:zoom="32"
     inkscape:cx="11.692243"
     inkscape:cy="10.10425"
     inkscape:window-x="0"
     inkscape:window-y="30"
     inkscape:window-maximized="1"
     inkscape:current-layer="g4564"
     inkscape:snap-bbox="false"
     inkscape:bbox-paths="false"
     inkscape:bbox-nodes="true">
    <inkscape:grid
       type="xygrid"
       id="grid33" />
  </sodipodi:namedview>
  <metadata
     id="metadata14">
    <rdf:RDF>
      <cc:Work
         rdf:about="">
        <dc:format>image/svg+xml</dc:format>
        <dc:type
           rdf:resource="http://purl.org/dc/dcmitype/StillImage" />
        <dc:title />
      </cc:Work>
    </rdf:RDF>
  </metadata>
  <defs
     id="defs12" />
  <g
     transform="translate(-126.96989,-1)"
     id="g4564">
    <path
       style="color:#000000;font-style:normal;font-variant:normal;font-weight:normal;font-stretch:normal;font-size:medium;line-height:normal;font-family:sans-serif;font-variant-ligatures:normal;font-variant-position:normal;font-variant-caps:normal;font-variant-numeric:normal;font-variant-alternates:normal;font-feature-settings:normal;text-indent:0;text-align:start;text-decoration:none;text-decoration-line:none;text-decoration-style:solid;text-decoration-color:#000000;letter-spacing:normal;word-spacing:normal;text-transform:none;writing-mode:lr-tb;direction:ltr;text-orientation:mixed;dominant-baseline:auto;baseline-shift:baseline;text-anchor:start;white-space:normal;shape-padding:0;clip-rule:nonzero;display:inline;overflow:visible;visibility:visible;opacity:1;isolation:auto;mix-blend-mode:normal;color-interpolation:sRGB;color-interpolation-filters:linearRGB;solid-color:#000000;solid-opacity:1;vector-effect:none;fill:#000000;fill-opacity:1;fill-rule:nonzero;stroke:none;stroke-width:1px;stroke-linecap:butt;stroke-linejoin:miter;stroke-miterlimit:4;stroke-dasharray:none;stroke-dashoffset:0;stroke-opacity:1;color-rendering:auto;image-rendering:auto;shape-rendering:auto;text-rendering:auto;enable-background:accumulate"
       d="M 7 4 L 7 5 L 15 5 L 15 10 L 1 10 L 1 9 L 1 7 L 0 7 L 0 11 L 1 11 L 1 13 L 6 13 L 8 13 L 15 13 L 15 11 L 16 11 L 16 4 L 7 4 z M 2 11 L 3 11 L 3 12 L 2 12 L 2 11 z M 4 11 L 5 11 L 5 12 L 4 12 L 4 11 z M 6 11 L 8 11 L 8 12 L 6 12 L 6 11 z M 9 11 L 10 11 L 10 12 L 9 12 L 9 11 z M 11 11 L 12 11 L 12 12 L 11 12 L 11 11 z M 13 11 L 14 11 L 14 12 L 13 12 L 13 11 z "
       transform="translate(126.96989,1)"
       id="path19" />
    <rect
       y="8"
       x="131.96989"
       height="2.0000005"
       width="2"
       id="rect826-3"
       style="fill:#000000;fill-opacity:1;stroke:none;stroke-width:0.81649667;stroke-miterlimit:4;stroke-dasharray:none;stroke-opacity:1" />
    <rect
       y="7.0000005"
       x="135.96989"
       height="3"
       width="2"
       id="rect826-6"
       style="fill:#000000;fill-opacity:1;stroke:none;stroke-width:1;stroke-miterlimit:4;stroke-dasharray:none;stroke-opacity:1" />
    <rect
       y="7.0000005"
       x="138.96989"
       height="3"
       width="2"
       id="rect826-7"
       style="fill:#000000;fill-opacity:1;stroke:none;stroke-width:1;stroke-miterlimit:4;stroke-dasharray:none;stroke-opacity:1" />
    <g
       id="g22"
       transform="translate(-1.809771,0.61016998)">
      <g
         id="g4544"
         transform="translate(13,-1)">
        <g
           id="g4548"
           transform="translate(126)">
          <path
             style="fill:#000000;stroke:none;stroke-opacity:1"
             d="m -8.2203389,3.3898305 v 2 h -2.0000001 v 2 h 2.0000001 v 2 h 2 v -2 h 2 v -2 h -2 v -2 z"
             id="rect16"
             inkscape:connector-curvature="0" />
        </g>
      </g>
    </g>
  </g>
</svg>
