<?xml version="1.0" encoding="UTF-8" standalone="no"?>
<svg
   height="16"
   width="16"
   version="1.1"
   id="svg8"
   sodipodi:docname="temperature-gpu-symbolic.svg"
   xml:space="preserve"
   inkscape:version="1.2.2 (b0a8486541, 2022-12-01)"
   xmlns:inkscape="http://www.inkscape.org/namespaces/inkscape"
   xmlns:sodipodi="http://sodipodi.sourceforge.net/DTD/sodipodi-0.dtd"
   xmlns="http://www.w3.org/2000/svg"
   xmlns:svg="http://www.w3.org/2000/svg"
   xmlns:rdf="http://www.w3.org/1999/02/22-rdf-syntax-ns#"
   xmlns:cc="http://creativecommons.org/ns#"
   xmlns:dc="http://purl.org/dc/elements/1.1/"><sodipodi:namedview
     id="namedview10"
     pagecolor="#ffffff"
     bordercolor="#666666"
     borderopacity="1.0"
     inkscape:showpageshadow="2"
     inkscape:pageopacity="0.0"
     inkscape:pagecheckerboard="0"
     inkscape:deskcolor="#d1d1d1"
     showgrid="true"
     inkscape:zoom="32"
     inkscape:cx="12"
     inkscape:cy="9.4375"
     inkscape:window-width="1920"
     inkscape:window-height="1049"
     inkscape:window-x="2560"
     inkscape:window-y="0"
     inkscape:window-maximized="1"
     inkscape:current-layer="svg8"
     showguides="false"><inkscape:grid
       type="xygrid"
       id="grid116" /></sodipodi:namedview><metadata
     id="metadata14"><rdf:RDF><cc:Work
         rdf:about=""><dc:format>image/svg+xml</dc:format><dc:type
           rdf:resource="http://purl.org/dc/dcmitype/StillImage" /><dc:title /></cc:Work></rdf:RDF></metadata><defs
     id="defs12"><linearGradient
       id="linearGradient2357"
       inkscape:swatch="solid"><stop
         style="stop-color:#ffffff;stop-opacity:1;"
         offset="0"
         id="stop2355" /></linearGradient></defs><path
     id="rect336"
     style="fill:#000000;fill-opacity:1;stroke-width:1.37953;stroke:none"
     d="M 11.955078 0 C 10.299131 0.024487976 8.976389 1.3787037 9 3.0253906 L 9 9.3613281 C 8.3571916 10.090199 8.001722 11.02817 8 12 C 8 14.209137 9.7908632 16 12 16 C 14.209137 16 16 14.209137 16 12 C 15.9983 11.02817 15.642808 10.090199 15 9.3613281 L 15 7 L 15 3 C 15 0.9998706 13.27887 -0.00013139987 11.955078 0 z M 11.970703 1 C 13.11012 0.98290002 14.009639 1.8777811 14 3 C 13.999965 3.004 14.000057 3.0080188 14 3.0117188 C 13.999968 3.0162887 13.999968 3.0208206 14 3.0253906 L 14 4 L 14 5 L 14 6 L 14 7 L 14 9.3613281 C 13.999845 9.6051249 14.08875 9.8405837 14.25 10.023438 C 14.731857 10.569797 14.998252 11.271551 15 12 C 15 13.668698 13.668696 15 12 15 C 10.331958 15 9.001045 13.669731 9 12.001953 L 9 12 C 9.0018 11.271551 9.2681435 10.569807 9.75 10.023438 C 9.9112498 9.8405837 10.000154 9.6051249 10 9.3613281 L 10 3.0253906 C 10.000031 3.0208206 10.000031 3.0162887 10 3.0117188 C 9.98418 1.9082399 10.851895 1.01654 11.970703 1 z M 0 3 L 0 4 L 2 4 L 2 14 L 3 14 L 3 13 L 7.1015625 13 C 7.0351586 12.676487 7 12.342373 7 12 L 7 11.998047 L 7 11 L 7.1210938 11 C 7.2020217 10.654725 7.3213184 10.321003 7.4746094 10 L 3 10 L 3 5 L 8 5 L 8 4 L 3 4 L 3 3 L 0 3 z M 4 6 L 4 7 L 4 8 L 4 8.4863281 L 4 8.9726562 L 6.5 8.9726562 L 8 8.9726562 L 8 8 L 7 8 L 7 7 L 8 7 L 8 6 L 4 6 z M 11 6 L 11 9.3613281 C 10.999831 9.8482476 10.822053 10.318392 10.5 10.683594 C 10.178679 11.047943 10.00132 11.516214 10 12.001953 C 10.001 13.129252 10.872407 14 12 14 C 13.127592 14 13.99897 13.129252 14 12.001953 C 13.9987 11.516214 13.82132 11.047943 13.5 10.683594 C 13.177946 10.318392 13.000168 9.8482476 13 9.3613281 L 13 6 L 11 6 z M 5 7 L 6 7 L 6 8 L 5 8 L 5 7 z M 3 11 L 4 11 L 4 12 L 3 12 L 3 11 z M 5 11 L 6 11 L 6 12 L 5 12 L 5 11 z " /></svg>
