<?xml version="1.0" encoding="UTF-8"?>
<svg width="64px" height="64px" version="1.1" xml:space="preserve" xmlns="http://www.w3.org/2000/svg" xmlns:cc="http://creativecommons.org/ns#" xmlns:dc="http://purl.org/dc/elements/1.1/" xmlns:rdf="http://www.w3.org/1999/02/22-rdf-syntax-ns#" xmlns:xlink="http://www.w3.org/1999/xlink"><defs><linearGradient id="linearGradient3688-166-749-654"><stop stop-color="#181818" offset="0"/><stop stop-color="#181818" stop-opacity="0" offset="1"/></linearGradient><linearGradient id="linearGradient3180" x1="24" x2="24" y1="5" y2="43" gradientTransform="matrix(1.4324 0 0 1.4363 -2.3784 -2.4708)" gradientUnits="userSpaceOnUse"><stop stop-color="#fff" offset="0"/><stop stop-color="#fff" stop-opacity=".23529" offset=".063165"/><stop stop-color="#fff" stop-opacity=".15686" offset=".95056"/><stop stop-color="#fff" stop-opacity=".39216" offset="1"/></linearGradient><radialGradient id="radialGradient3337-2-2-3" cx="4.993" cy="43.5" r="2.5" gradientTransform="matrix(2.4045 0 0 1 41.986 15.5)" gradientUnits="userSpaceOnUse" xlink:href="#linearGradient3688-166-749-654"/><radialGradient id="radialGradient3339-1-4-5" cx="4.993" cy="43.5" r="2.5" gradientTransform="matrix(2.4045 0 0 1 -22.014 -102.5)" gradientUnits="userSpaceOnUse" xlink:href="#linearGradient3688-166-749-654"/><linearGradient id="linearGradient6394" x1="25.058" x2="25.058" y1="47.028" y2="39.999" gradientTransform="matrix(1.5714 0 0 .71429 -5.7143 27.929)" gradientUnits="userSpaceOnUse"><stop stop-color="#181818" stop-opacity="0" offset="0"/><stop stop-color="#181818" offset=".5"/><stop stop-color="#181818" stop-opacity="0" offset="1"/></linearGradient><linearGradient id="linearGradient8" x1="35.197" x2="35.197" y1="4.5876" y2="59.526" gradientUnits="userSpaceOnUse"><stop stop-color="#0e141f" offset="0"/><stop stop-color="#273445" offset="1"/></linearGradient><linearGradient id="linearGradient20" x1="36.593" x2="36.593" y1="20.026" y2="43.76" gradientUnits="userSpaceOnUse"><stop stop-color="#d1ff82" offset="0"/><stop stop-color="#8cd5ff" offset="1"/></linearGradient><linearGradient id="linearGradient22" x1="-36.231" x2="-36.231" y1="20.999" y2="59.612" gradientTransform="translate(64.612)" gradientUnits="userSpaceOnUse"><stop stop-color="#007367" offset="0"/><stop stop-color="#273445" stop-opacity="0" offset="1"/></linearGradient></defs><metadata><rdf:RDF><cc:Work rdf:about=""><dc:format>image/svg+xml</dc:format><dc:type rdf:resource="http://purl.org/dc/dcmitype/StillImage"/></cc:Work></rdf:RDF></metadata><g><rect x="54" y="56.5" width="6" height="5" fill="url(#radialGradient3337-2-2-3)" opacity=".6"/><rect transform="scale(-1)" x="-10" y="-61.5" width="6" height="5" fill="url(#radialGradient3339-1-4-5)" opacity=".6"/><rect x="10" y="56.5" width="44" height="5" fill="url(#linearGradient6394)" opacity=".6"/></g><g><rect x="4.5" y="4.5" width="55" height="55" rx="6" ry="6" color="#000000" fill="url(#linearGradient8)"/><path d="m28.436 19.602c-0.6619 2.206-1.3053 4.5026-2.1289 6.8926-0.57658 1.6731-1.1924 3.2023-1.916 4.3887-0.36178 0.59317-0.74866 1.1055-1.2246 1.5059-0.47595 0.4004-1.086 0.69733-1.7598 0.68164-1.9317-0.044929-10.918-0.06055-16.906-0.066406v20.496c0 3.324 2.676 6 6 6h43c3.324 0 6-2.676 6-6v-20.5c-6.4484-5.46e-4 -15.128-0.0021-17.857-0.0039-0.40158-2.63e-4 -0.70719 0.13623-1.0762 0.49609s-0.74711 0.95582-1.0781 1.7168c-0.66202 1.522-1.1327 3.6664-1.4629 5.7422-0.33024 2.0758-0.5307 4.0803-0.72656 5.4453-0.09793 0.68251-0.14022 1.1383-0.36719 1.6445-0.05674 0.12656-0.12001 0.27343-0.32227 0.45703-0.20226 0.1836-0.70478 0.35258-1.0723 0.23047-0.36748-0.12211-0.50674-0.32623-0.60352-0.4668-0.09678-0.14057-0.15244-0.26045-0.20508-0.38867l-0.0039-0.01367-0.0059-0.01172c-1.456-3.8317-2.5986-10.09-3.707-15.637-0.89602-4.4839-1.7034-8.7166-2.334-11.627-0.096769-0.44659-0.15384-0.60176-0.24219-0.98242z" color="#000000" fill="url(#linearGradient22)" stop-color="#000000" style="-inkscape-stroke:none;font-variation-settings:normal"/><g fill-rule="evenodd"><path d="m28.357 15.363c-1.0284 0.01008-1.8715 0.85868-2.0199 1.8506-1.4495 4.1966-2.2889 8.6226-4.2432 12.633-0.33505 0.48779-0.5734 1.4235-1.3345 1.2166-5.5863-0.068555-11.173-0.052843-16.76-0.064994v4c5.9334-0.0026 11.869 0.03094 17.801 0.05469 2.1235-0.25999 3.3569-2.2841 4.1885-4.0502 0.95324-2.0584 1.6246-4.2319 2.2939-6.3951 1.3804 6.6304 2.5116 13.315 4.0944 19.902 0.48627 1.7743 0.86885 3.616 1.6986 5.2665 0.78719 1.4447 3.155 1.2383 3.7422-0.27344 0.62223-1.6325 0.58232-3.4258 0.87606-5.1335 0.42261-2.8503 0.72612-5.8161 2.044-8.4207 0.28096-0.4997 0.67567-1.1553 1.3589-0.95154 5.9676 0.0012 11.935 3e-3 17.903 0.0038v-4c-6.2739 0.01493-12.549-0.03431-18.822 0.01953-2.2855 0.24812-3.8107 2.2902-4.5633 4.2978-0.55487 1.3502-0.90963 2.7731-1.2024 4.2002-1.6207-7.0526-2.7491-14.211-4.4331-21.248-0.2737-1.1687-0.74517-2.6175-2.0923-2.877-0.17596-0.01039-0.35345-0.05055-0.5293-0.0293z" enable-background="new" fill="#0e141f" opacity=".15" stop-color="#000000"/><path d="m28.9 16.44c-0.23218-0.10444-0.64171-0.11914-0.91406 0.01758-0.54163 0.27189-0.54107 0.57436-0.5957 0.76172-0.9103 2.5647-1.871 6.4206-2.9746 9.623-0.55448 1.609-1.151 3.0467-1.7324 4-0.29073 0.47666-0.57855 0.82734-0.80469 1.0176s-0.34386 0.21284-0.42578 0.21094c-3.0916-0.071899-16.453-0.070314-16.453-0.070314v2s13.452 0.0016 16.406 0.07031c0.67379 0.01569 1.2838-0.28124 1.7598-0.68164 0.47595-0.4004 0.86282-0.91269 1.2246-1.5059 0.72357-1.1863 1.3394-2.7156 1.916-4.3887 0.82362-2.39 1.467-4.6866 2.1289-6.8926 0.08835 0.38066 0.14542 0.53583 0.24219 0.98242 0.63063 2.9104 1.438 7.143 2.334 11.627 1.1084 5.5466 2.251 11.805 3.707 15.637l0.0059 0.01172 0.0039 0.01367c0.05264 0.12822 0.1083 0.2481 0.20508 0.38867 0.09678 0.14057 0.23603 0.34468 0.60352 0.4668 0.36748 0.12211 0.87001-0.04687 1.0723-0.23047 0.20226-0.1836 0.26552-0.33047 0.32227-0.45703 0.22696-0.50623 0.26925-0.96202 0.36719-1.6445 0.19587-1.365 0.39633-3.3695 0.72656-5.4453 0.33024-2.0758 0.80086-4.2202 1.4629-5.7422 0.33101-0.76098 0.70914-1.3569 1.0781-1.7168 0.36898-0.35986 0.67459-0.49636 1.0762-0.49609 4.5195 0.003004 17.357 0.003909 17.357 0.003909v-2s-12.838-9.07e-4 -17.355-0.0039c-0.96118-6.28e-4 -1.8292 0.43502-2.4746 1.0645s-1.1195 1.441-1.5156 2.3516c-0.79218 1.8212-1.2636 4.0756-1.6055 6.2246-0.1904 1.1968-0.28102 2.0305-0.40625 3.0488-0.93993-3.4893-1.8369-7.6985-2.6699-11.867-0.89387-4.4732-1.6991-8.7013-2.3398-11.658-0.32035-1.4784-0.59293-2.6267-0.83984-3.3926-0.12346-0.38294-0.1567-0.62039-0.47461-1.0039-0.07948-0.09588-0.18578-0.21978-0.41797-0.32422z" enable-background="new" fill="#0e141f" opacity=".3" stop-color="#000000"/><path d="m28.9 15.439c-0.23218-0.10444-0.64171-0.11914-0.91406 0.01758-0.54163 0.27189-0.54107 0.57436-0.5957 0.76172-0.9103 2.5647-1.871 6.4206-2.9746 9.623-0.55448 1.609-1.151 3.0467-1.7324 4-0.29073 0.47666-0.57855 0.82734-0.80469 1.0176s-0.34386 0.21284-0.42578 0.21094c-3.0916-0.071899-16.453-0.070314-16.453-0.070314v2s13.452 0.0016 16.406 0.07031c0.67379 0.01569 1.2838-0.28124 1.7598-0.68164 0.47595-0.4004 0.86282-0.91269 1.2246-1.5059 0.72357-1.1863 1.3394-2.7156 1.916-4.3887 0.82362-2.39 1.467-4.6866 2.1289-6.8926 0.08835 0.38066 0.14542 0.53583 0.24219 0.98242 0.63063 2.9104 1.438 7.143 2.334 11.627 1.1084 5.5466 2.251 11.805 3.707 15.637l0.0059 0.01172 0.0039 0.01367c0.05264 0.12822 0.1083 0.2481 0.20508 0.38867 0.09678 0.14057 0.23603 0.34468 0.60352 0.4668 0.36748 0.12211 0.87001-0.04687 1.0723-0.23047 0.20226-0.1836 0.26552-0.33047 0.32227-0.45703 0.22696-0.50623 0.26925-0.96202 0.36719-1.6445 0.19587-1.365 0.39633-3.3695 0.72656-5.4453 0.33024-2.0758 0.80086-4.2202 1.4629-5.7422 0.33101-0.76098 0.70914-1.3569 1.0781-1.7168 0.36898-0.35986 0.67459-0.49636 1.0762-0.49609 4.5195 0.003004 17.357 0.003909 17.357 0.003909v-2s-12.838-9.07e-4 -17.355-0.0039c-0.96118-6.28e-4 -1.8292 0.43502-2.4746 1.0645s-1.1195 1.441-1.5156 2.3516c-0.79218 1.8212-1.2636 4.0756-1.6055 6.2246-0.1904 1.1968-0.28102 2.0305-0.40625 3.0488-0.93993-3.4893-1.8369-7.6985-2.6699-11.867-0.89387-4.4732-1.6991-8.7013-2.3398-11.658-0.32035-1.4784-0.59293-2.6267-0.83984-3.3926-0.12346-0.38294-0.1567-0.62039-0.47461-1.0039-0.07948-0.09588-0.18578-0.21978-0.41797-0.32422z" enable-background="new" fill="url(#linearGradient20)" stop-color="#000000"/></g></g><rect x="4.5" y="4.5" width="55" height="55" rx="6" ry="6" color="#000000" fill="none" opacity=".7" stroke="#000" stroke-linecap="round" stroke-linejoin="round"/><rect x="5.5" y="5.4288" width="53" height="53.142" rx="5" ry="5" fill="none" opacity=".3" stroke="url(#linearGradient3180)" stroke-linecap="round" stroke-linejoin="round"/></svg>
