<?xml version="1.0" encoding="UTF-8" standalone="no"?>
<svg
   version="1.1"
   width="64"
   height="64"
   id="svg6333"
   sodipodi:docname="64.svg"
   inkscape:version="1.2.2 (b0a8486541, 2022-12-01)"
   xmlns:inkscape="http://www.inkscape.org/namespaces/inkscape"
   xmlns:sodipodi="http://sodipodi.sourceforge.net/DTD/sodipodi-0.dtd"
   xmlns:xlink="http://www.w3.org/1999/xlink"
   xmlns="http://www.w3.org/2000/svg"
   xmlns:svg="http://www.w3.org/2000/svg"
   xmlns:rdf="http://www.w3.org/1999/02/22-rdf-syntax-ns#"
   xmlns:cc="http://creativecommons.org/ns#"
   xmlns:dc="http://purl.org/dc/elements/1.1/">
  <sodipodi:namedview
     pagecolor="#ffffff"
     bordercolor="#666666"
     borderopacity="1"
     objecttolerance="10"
     gridtolerance="10"
     guidetolerance="10"
     inkscape:pageopacity="0"
     inkscape:pageshadow="2"
     inkscape:window-width="1920"
     inkscape:window-height="1049"
     id="namedview38"
     showgrid="true"
     inkscape:zoom="3.9375"
     inkscape:cx="119.11111"
     inkscape:cy="-8.6349206"
     inkscape:window-x="2560"
     inkscape:window-y="0"
     inkscape:window-maximized="1"
     inkscape:current-layer="svg6333"
     inkscape:document-rotation="0"
     inkscape:showpageshadow="2"
     inkscape:pagecheckerboard="0"
     inkscape:deskcolor="#d1d1d1">
    <inkscape:grid
       type="xygrid"
       id="grid858"
       empspacing="4" />
    <inkscape:grid
       type="xygrid"
       id="grid860"
       empspacing="2"
       spacingy="0.5"
       spacingx="0.5"
       dotted="true" />
  </sodipodi:namedview>
  <defs
     id="defs6335">
    <linearGradient
       id="linearGradient872">
      <stop
         style="stop-color:#414949;stop-opacity:1;"
         offset="0"
         id="stop868" />
      <stop
         style="stop-color:#0d1112;stop-opacity:1;"
         offset="1"
         id="stop870" />
    </linearGradient>
    <linearGradient
       x1="23.99999"
       y1="4.999989"
       x2="23.99999"
       y2="43"
       id="linearGradient3381-5-4"
       xlink:href="#linearGradient3924-2-2-5-8"
       gradientUnits="userSpaceOnUse"
       gradientTransform="matrix(1.4324324,0,0,1.4362832,-2.378381,-2.4707782)" />
    <linearGradient
       id="linearGradient3924-2-2-5-8">
      <stop
         id="stop3926-9-4-9-6"
         style="stop-color:#ffffff;stop-opacity:1"
         offset="0" />
      <stop
         id="stop3928-9-8-6-5"
         style="stop-color:#ffffff;stop-opacity:0.23529412"
         offset="0.06316455" />
      <stop
         id="stop3930-3-5-1-7"
         style="stop-color:#ffffff;stop-opacity:0.15686275"
         offset="0.95056331" />
      <stop
         id="stop3932-8-0-4-8"
         style="stop-color:#ffffff;stop-opacity:0.39215687"
         offset="1" />
    </linearGradient>
    <radialGradient
       cx="4.9929786"
       cy="43.5"
       r="2.5"
       fx="4.9929786"
       fy="43.5"
       id="radialGradient3337-2-2"
       xlink:href="#linearGradient3688-166-749-4-0-3-8"
       gradientUnits="userSpaceOnUse"
       gradientTransform="matrix(2.4045407,0,0,0.99999998,41.985755,15.500001)" />
    <linearGradient
       id="linearGradient3688-166-749-4-0-3-8">
      <stop
         id="stop2883-4-0-1-8"
         style="stop-color:#181818;stop-opacity:1"
         offset="0" />
      <stop
         id="stop2885-9-2-9-6"
         style="stop-color:#181818;stop-opacity:0"
         offset="1" />
    </linearGradient>
    <radialGradient
       cx="4.9929786"
       cy="43.5"
       r="2.5"
       fx="4.9929786"
       fy="43.5"
       id="radialGradient3339-1-4"
       xlink:href="#linearGradient3688-464-309-9-2-4-2"
       gradientUnits="userSpaceOnUse"
       gradientTransform="matrix(2.4045407,0,0,0.99999998,-22.014244,-102.5)" />
    <linearGradient
       id="linearGradient3688-464-309-9-2-4-2">
      <stop
         id="stop2889-7-9-6-9"
         style="stop-color:#181818;stop-opacity:1"
         offset="0" />
      <stop
         id="stop2891-6-6-1-7"
         style="stop-color:#181818;stop-opacity:0"
         offset="1" />
    </linearGradient>
    <linearGradient
       id="linearGradient3702-501-757-8-4-1-1">
      <stop
         id="stop2895-8-9-9-1"
         style="stop-color:#181818;stop-opacity:0"
         offset="0" />
      <stop
         id="stop2897-7-8-7-7"
         style="stop-color:#181818;stop-opacity:1"
         offset="0.5" />
      <stop
         id="stop2899-4-5-1-5"
         style="stop-color:#181818;stop-opacity:0"
         offset="1" />
    </linearGradient>
    <linearGradient
       x1="25.058096"
       y1="47.027729"
       x2="25.058096"
       y2="39.999443"
       id="linearGradient6394"
       xlink:href="#linearGradient3702-501-757-8-4-1-1"
       gradientUnits="userSpaceOnUse"
       gradientTransform="matrix(1.5714286,0,0,0.7142857,-5.7142853,27.928572)" />
    <linearGradient
       xlink:href="#linearGradient872"
       id="linearGradient856-2-3"
       x1="23.528315"
       y1="6.08318"
       x2="23.528315"
       y2="44.23307"
       gradientUnits="userSpaceOnUse"
       gradientTransform="matrix(1.4102564,0,0,1.4102564,-1.8461748,-3.2564048)" />
  </defs>
  <metadata
     id="metadata6338">
    <rdf:RDF>
      <cc:Work
         rdf:about="">
        <dc:format>image/svg+xml</dc:format>
        <dc:type
           rdf:resource="http://purl.org/dc/dcmitype/StillImage" />
        <dc:title />
      </cc:Work>
    </rdf:RDF>
  </metadata>
  <rect
     style="opacity:0.6;fill:url(#radialGradient3337-2-2);fill-opacity:1;stroke:none;stroke-width:1.06199"
     id="rect2801-5-5-7-9"
     y="56.5"
     x="54"
     height="5"
     width="6" />
  <rect
     style="opacity:0.6;fill:url(#radialGradient3339-1-4);fill-opacity:1;stroke:none;stroke-width:1.06199"
     id="rect3696-3-0-3-7"
     transform="scale(-1)"
     y="-61.5"
     x="-10"
     height="5"
     width="6" />
  <rect
     style="opacity:0.6;fill:url(#linearGradient6394);fill-opacity:1;stroke:none;stroke-width:1.06199"
     id="rect3700-5-6-8-4"
     y="56.5"
     x="10"
     height="5.0000005"
     width="44" />
  <rect
     style="color:#000000;display:inline;overflow:visible;visibility:visible;opacity:1;fill:url(#linearGradient856-2-3);fill-opacity:1;fill-rule:nonzero;stroke:none;stroke-width:1;stroke-opacity:0.5;marker:none;enable-background:accumulate"
     id="rect5505-21-1-5"
     y="4.5000019"
     x="4.4999986"
     ry="6"
     rx="6"
     height="55"
     width="55" />
  <g
     id="g84893"
     transform="matrix(1.1402285,0,0,1.1402285,5.6581784,2.7726471)">
    <path
       class="st0"
       d="M 36.752046,17.189201 25.991474,10.796496 c -0.636378,-0.376042 -1.359535,-0.578526 -2.082691,-0.578526 -0.723157,0 -1.446314,0.202484 -2.082692,0.578526 l -10.760572,6.392705 c -1.2727557,0.752083 -2.0826913,2.16947 -2.0826913,3.702562 v 12.785412 c 0,1.533092 0.7810093,2.921553 2.0826913,3.702562 l 10.760572,6.392706 c 0.636378,0.376041 1.359535,0.578525 2.082692,0.578525 0.723156,0 1.446313,-0.202484 2.082691,-0.578525 l 10.760572,-6.392706 c 1.272756,-0.752083 2.082692,-2.16947 2.082692,-3.702562 V 20.862837 c 0,-1.504166 -0.781009,-2.921553 -2.082692,-3.673636 z m -8.330765,19.959126 0.02893,0.925641 c 0,0.115705 -0.05785,0.23141 -0.144631,0.289262 l -0.5496,0.318189 c -0.08678,0.05785 -0.144631,0 -0.173557,-0.115705 V 37.669 c -0.46282,0.202484 -0.925641,0.23141 -1.24383,0.115705 -0.05785,-0.02893 -0.08678,-0.115705 -0.05785,-0.202484 l 0.202484,-0.838862 c 0.02893,-0.05785 0.05785,-0.144631 0.08678,-0.173557 0.02893,-0.02893 0.02893,-0.02893 0.05785,-0.02893 0.02893,-0.02893 0.05785,-0.02893 0.08678,0 0.318189,0.115705 0.752083,0.05785 1.128124,-0.144631 0.520673,-0.260337 0.838862,-0.781009 0.838862,-1.301682 0,-0.462821 -0.260336,-0.665304 -0.867788,-0.665304 -0.781009,0 -1.504166,-0.144632 -1.533092,-1.301683 0,-0.954567 0.491746,-1.93806 1.272756,-2.545511 V 29.65642 c 0,-0.115705 0.05785,-0.23141 0.144631,-0.289263 l 0.520673,-0.347115 c 0.08678,-0.05785 0.144631,0 0.173557,0.115705 v 0.925641 c 0.376042,-0.144632 0.723157,-0.202484 1.041346,-0.115705 0.05785,0.02893 0.08678,0.115705 0.05785,0.202484 l -0.202484,0.809935 c -0.02893,0.05785 -0.05785,0.115705 -0.08678,0.173558 -0.02893,0.02893 -0.02893,0.02893 -0.05785,0.02893 -0.02893,0 -0.05785,0.02893 -0.08678,0 -0.144632,-0.02893 -0.462821,-0.115705 -0.983494,0.173558 -0.549599,0.289262 -0.752083,0.752083 -0.723156,1.099198 0,0.433894 0.23141,0.549599 0.954567,0.549599 0.983493,0.02893 1.417387,0.46282 1.446313,1.446314 0,1.012419 -0.520673,2.053765 -1.330608,2.719069 z m 5.640622,-1.562019 c 0,0.08678 0,0.173558 -0.08678,0.202484 l -2.71907,1.648798 c -0.05785,0.02893 -0.115705,0 -0.115705,-0.08678 v -0.694231 c 0,-0.08678 0.05785,-0.144631 0.115705,-0.173557 l 2.690145,-1.590944 c 0.05785,-0.02893 0.115705,0 0.115705,0.08678 z m 1.880208,-15.706964 -10.182047,6.277 c -1.272756,0.752083 -2.198397,1.562019 -2.198397,3.095111 v 12.554001 c 0,0.925641 0.376042,1.504166 0.925641,1.677724 -0.173558,0.02893 -0.376042,0.05785 -0.578525,0.05785 -0.607452,0 -1.185978,-0.173558 -1.70665,-0.462821 L 11.44156,36.685507 C 10.400214,36.049129 9.7349108,34.892078 9.7349108,33.648248 V 20.862837 c 0,-1.24383 0.6653032,-2.429807 1.7066492,-3.037258 l 10.760573,-6.392706 c 0.520672,-0.318189 1.099198,-0.46282 1.70665,-0.46282 0.607451,0 1.185977,0.173557 1.706649,0.46282 l 10.760573,6.392706 c 0.896714,0.520672 1.47524,1.446313 1.648797,2.458732 -0.347115,-0.752083 -1.15705,-0.954566 -2.082691,-0.404967 z"
       id="path25813-0-6"
       style="fill:none;fill-opacity:0.14902;stroke:#000000;stroke-width:4.66067;stroke-miterlimit:4;stroke-dasharray:none;stroke-opacity:0.14902" />
    <path
       class="st0"
       d="M 36.805848,16.019215 26.045276,9.626509 C 25.408898,9.250467 24.685741,9.047983 23.962585,9.047983 c -0.723157,0 -1.446314,0.202484 -2.082692,0.578526 l -10.760572,6.392706 c -1.272756,0.752083 -2.082692,2.16947 -2.082692,3.702562 v 12.785412 c 0,1.533092 0.78101,2.921553 2.082692,3.702562 l 10.760572,6.392706 c 0.636378,0.376041 1.359535,0.578525 2.082692,0.578525 0.723156,0 1.446313,-0.202484 2.082691,-0.578525 l 10.760572,-6.392706 c 1.272756,-0.752083 2.082692,-2.16947 2.082692,-3.702562 V 19.692851 c 0,-1.504166 -0.781009,-2.921553 -2.082692,-3.673636 z m -8.330765,19.959126 0.02893,0.925641 c 0,0.115705 -0.05785,0.23141 -0.144631,0.289262 l -0.5496,0.318189 c -0.08678,0.05785 -0.144631,0 -0.173557,-0.115705 v -0.896714 c -0.46282,0.202484 -0.925641,0.23141 -1.24383,0.115705 -0.05785,-0.02893 -0.08678,-0.115705 -0.05785,-0.202484 l 0.202484,-0.838862 c 0.02893,-0.05785 0.05785,-0.144631 0.08678,-0.173557 0.02893,-0.02893 0.02893,-0.02893 0.05785,-0.02893 0.02893,-0.02893 0.05785,-0.02893 0.08678,0 0.318189,0.115705 0.752083,0.05785 1.128124,-0.144631 0.520673,-0.260337 0.838862,-0.781009 0.838862,-1.301682 0,-0.462821 -0.260336,-0.665304 -0.867788,-0.665304 -0.781009,0 -1.504166,-0.144632 -1.533092,-1.301683 0,-0.954567 0.491746,-1.93806 1.272756,-2.545511 v -0.925641 c 0,-0.115705 0.05785,-0.23141 0.144631,-0.289263 l 0.520673,-0.347115 c 0.08678,-0.05785 0.144631,0 0.173557,0.115705 v 0.925641 c 0.376042,-0.144632 0.723157,-0.202484 1.041346,-0.115705 0.05785,0.02893 0.08678,0.115705 0.05785,0.202484 l -0.202484,0.809935 c -0.02893,0.05785 -0.05785,0.115705 -0.08678,0.173558 -0.02893,0.02893 -0.02893,0.02893 -0.05785,0.02893 -0.02893,0 -0.05785,0.02893 -0.08678,0 -0.144632,-0.02893 -0.462821,-0.115705 -0.983494,0.173558 -0.549599,0.289262 -0.752083,0.752083 -0.723156,1.099198 0,0.433894 0.23141,0.549599 0.954567,0.549599 0.983493,0.02893 1.417387,0.46282 1.446313,1.446314 0,1.012419 -0.520673,2.053765 -1.330608,2.719069 z m 5.640622,-1.562019 c 0,0.08678 0,0.173558 -0.08678,0.202484 l -2.71907,1.648798 c -0.05785,0.02893 -0.115705,0 -0.115705,-0.08678 v -0.694231 c 0,-0.08678 0.05785,-0.144631 0.115705,-0.173557 L 34,33.722092 c 0.05785,-0.02893 0.115705,0 0.115705,0.08678 z m 1.880208,-15.706964 -10.182047,6.277 c -1.272756,0.752083 -2.198397,1.562019 -2.198397,3.095111 V 40.63547 c 0,0.925641 0.376042,1.504166 0.925641,1.677724 -0.173558,0.02893 -0.376042,0.05785 -0.578525,0.05785 -0.607452,0 -1.185978,-0.173558 -1.70665,-0.462821 L 11.495362,35.515521 C 10.454016,34.879143 9.788712,33.722092 9.788712,32.478262 V 19.692851 c 0,-1.24383 0.665304,-2.429807 1.70665,-3.037258 l 10.760573,-6.392706 c 0.520672,-0.318189 1.099198,-0.46282 1.70665,-0.46282 0.607451,0 1.185977,0.173557 1.706649,0.46282 l 10.760573,6.392706 c 0.896714,0.520672 1.47524,1.446313 1.648797,2.458732 -0.347115,-0.752083 -1.15705,-0.954566 -2.082691,-0.404967 z"
       id="path25813-5"
       style="fill:#000000;fill-opacity:0.403922;stroke-width:2.20768;stroke-miterlimit:4;stroke-dasharray:none" />
    <path
       class="st0"
       d="M 36.805848,15.093574 26.045276,8.7008679 C 25.408898,8.3248264 24.685741,8.1223425 23.962585,8.1223425 c -0.723157,0 -1.446314,0.2024839 -2.082692,0.5785254 L 11.119321,15.093574 c -1.2727562,0.752083 -2.0826918,2.16947 -2.0826918,3.702562 v 12.785412 c 0,1.533092 0.7810093,2.921553 2.0826918,3.702562 l 10.760572,6.392706 c 0.636378,0.376041 1.359535,0.578525 2.082692,0.578525 0.723156,0 1.446313,-0.202484 2.082691,-0.578525 L 36.805848,35.28411 c 1.272756,-0.752083 2.082692,-2.16947 2.082692,-3.702562 V 18.76721 c 0,-1.504166 -0.781009,-2.921553 -2.082692,-3.673636 z m -8.330765,19.959126 0.02893,0.925641 c 0,0.115705 -0.05785,0.23141 -0.144631,0.289262 l -0.5496,0.318189 c -0.08678,0.05785 -0.144631,0 -0.173557,-0.115705 v -0.896714 c -0.46282,0.202484 -0.925641,0.23141 -1.24383,0.115705 -0.05785,-0.02893 -0.08678,-0.115705 -0.05785,-0.202484 l 0.202484,-0.838862 c 0.02893,-0.05785 0.05785,-0.144631 0.08678,-0.173557 0.02893,-0.02893 0.02893,-0.02893 0.05785,-0.02893 0.02893,-0.02893 0.05785,-0.02893 0.08678,0 0.318189,0.115705 0.752083,0.05785 1.128124,-0.144631 0.520673,-0.260337 0.838862,-0.781009 0.838862,-1.301682 0,-0.462821 -0.260336,-0.665304 -0.867788,-0.665304 -0.781009,0 -1.504166,-0.144632 -1.533092,-1.301683 0,-0.954567 0.491746,-1.93806 1.272756,-2.545511 v -0.925641 c 0,-0.115705 0.05785,-0.23141 0.144631,-0.289263 l 0.520673,-0.347115 c 0.08678,-0.05785 0.144631,0 0.173557,0.115705 v 0.925641 c 0.376042,-0.144632 0.723157,-0.202484 1.041346,-0.115705 0.05785,0.02893 0.08678,0.115705 0.05785,0.202484 l -0.202484,0.809935 c -0.02893,0.05785 -0.05785,0.115705 -0.08678,0.173558 -0.02893,0.02893 -0.02893,0.02893 -0.05785,0.02893 -0.02893,0 -0.05785,0.02893 -0.08678,0 -0.144632,-0.02893 -0.462821,-0.115705 -0.983494,0.173558 -0.549599,0.289262 -0.752083,0.752083 -0.723156,1.099198 0,0.433894 0.23141,0.549599 0.954567,0.549599 0.983493,0.02893 1.417387,0.46282 1.446313,1.446314 0,1.012419 -0.520673,2.053765 -1.330608,2.719069 z m 5.640622,-1.562019 c 0,0.08678 0,0.173558 -0.08678,0.202484 l -2.71907,1.648798 c -0.05785,0.02893 -0.115705,0 -0.115705,-0.08678 v -0.694231 c 0,-0.08678 0.05785,-0.144631 0.115705,-0.173557 L 34,32.796451 c 0.05785,-0.02893 0.115705,0 0.115705,0.08678 z m 1.880208,-15.706964 -10.182047,6.277 c -1.272756,0.752083 -2.198397,1.562019 -2.198397,3.095111 v 12.554001 c 0,0.925641 0.376042,1.504166 0.925641,1.677724 -0.173558,0.02893 -0.376042,0.05785 -0.578525,0.05785 -0.607452,0 -1.185978,-0.173558 -1.70665,-0.462821 L 11.495362,34.58988 C 10.454016,33.953502 9.7887123,32.796451 9.7887123,31.552621 V 18.76721 c 0,-1.24383 0.6653037,-2.429807 1.7066497,-3.037258 L 22.255935,9.3372459 c 0.520672,-0.318189 1.099198,-0.4628203 1.70665,-0.4628203 0.607451,0 1.185977,0.1735576 1.706649,0.4628203 l 10.760573,6.3927061 c 0.896714,0.520672 1.47524,1.446313 1.648797,2.458732 -0.347115,-0.752083 -1.15705,-0.954566 -2.082691,-0.404967 z"
       id="path25813"
       style="fill:#ffffff;stroke-width:2.20768;stroke-miterlimit:4;stroke-dasharray:none" />
  </g>
  <rect
     style="opacity:0.5;fill:none;stroke:url(#linearGradient3381-5-4);stroke-width:1;stroke-linecap:round;stroke-linejoin:round;stroke-miterlimit:4;stroke-dasharray:none;stroke-dashoffset:0;stroke-opacity:1"
     id="rect6741-5-0-2-3"
     y="5.4287739"
     x="5.4999986"
     ry="5"
     height="53.142479"
     width="53"
     rx="5" />
  <rect
     style="color:#000000;display:inline;overflow:visible;visibility:visible;opacity:0.5;fill:none;fill-opacity:1;fill-rule:nonzero;stroke:#273445;stroke-width:1;stroke-opacity:1;marker:none;enable-background:accumulate"
     id="rect863"
     y="4.5000019"
     x="4.4999986"
     ry="6"
     rx="6"
     height="55"
     width="55" />
</svg>
