<?xml version="1.0" encoding="UTF-8" standalone="no"?>
<svg
   version="1.1"
   width="64"
   height="64"
   id="svg6333"
   sodipodi:docname="docker.svg"
   inkscape:version="1.2.2 (b0a8486541, 2022-12-01)"
   xmlns:inkscape="http://www.inkscape.org/namespaces/inkscape"
   xmlns:sodipodi="http://sodipodi.sourceforge.net/DTD/sodipodi-0.dtd"
   xmlns:xlink="http://www.w3.org/1999/xlink"
   xmlns="http://www.w3.org/2000/svg"
   xmlns:svg="http://www.w3.org/2000/svg"
   xmlns:rdf="http://www.w3.org/1999/02/22-rdf-syntax-ns#"
   xmlns:cc="http://creativecommons.org/ns#"
   xmlns:dc="http://purl.org/dc/elements/1.1/">
  <sodipodi:namedview
     pagecolor="#ffffff"
     bordercolor="#666666"
     borderopacity="1"
     objecttolerance="10"
     gridtolerance="10"
     guidetolerance="10"
     inkscape:pageopacity="0"
     inkscape:pageshadow="2"
     inkscape:window-width="1920"
     inkscape:window-height="1049"
     id="namedview38"
     showgrid="false"
     inkscape:zoom="5.5684659"
     inkscape:cx="51.00148"
     inkscape:cy="10.236212"
     inkscape:window-x="2560"
     inkscape:window-y="0"
     inkscape:window-maximized="1"
     inkscape:current-layer="svg6333"
     inkscape:document-rotation="0"
     inkscape:showpageshadow="2"
     inkscape:pagecheckerboard="0"
     inkscape:deskcolor="#d1d1d1">
    <inkscape:grid
       type="xygrid"
       id="grid858"
       empspacing="4" />
    <inkscape:grid
       type="xygrid"
       id="grid860"
       empspacing="2"
       spacingy="0.5"
       spacingx="0.5"
       dotted="true" />
  </sodipodi:namedview>
  <defs
     id="defs6335">
    <linearGradient
       id="linearGradient872">
      <stop
         style="stop-color:#2298ed;stop-opacity:1;"
         offset="0"
         id="stop868" />
      <stop
         style="stop-color:#127fe8;stop-opacity:1;"
         offset="1"
         id="stop870" />
    </linearGradient>
    <linearGradient
       x1="23.99999"
       y1="4.999989"
       x2="23.99999"
       y2="43"
       id="linearGradient3381-5-4"
       xlink:href="#linearGradient3924-2-2-5-8"
       gradientUnits="userSpaceOnUse"
       gradientTransform="matrix(1.4324324,0,0,1.4362832,-2.378381,-2.4707782)" />
    <linearGradient
       id="linearGradient3924-2-2-5-8">
      <stop
         id="stop3926-9-4-9-6"
         style="stop-color:#ffffff;stop-opacity:1"
         offset="0" />
      <stop
         id="stop3928-9-8-6-5"
         style="stop-color:#ffffff;stop-opacity:0.23529412"
         offset="0.06316455" />
      <stop
         id="stop3930-3-5-1-7"
         style="stop-color:#ffffff;stop-opacity:0.15686275"
         offset="0.95056331" />
      <stop
         id="stop3932-8-0-4-8"
         style="stop-color:#ffffff;stop-opacity:0.39215687"
         offset="1" />
    </linearGradient>
    <radialGradient
       cx="4.9929786"
       cy="43.5"
       r="2.5"
       fx="4.9929786"
       fy="43.5"
       id="radialGradient3337-2-2"
       xlink:href="#linearGradient3688-166-749-4-0-3-8"
       gradientUnits="userSpaceOnUse"
       gradientTransform="matrix(2.4045407,0,0,0.99999998,41.985755,15.500001)" />
    <linearGradient
       id="linearGradient3688-166-749-4-0-3-8">
      <stop
         id="stop2883-4-0-1-8"
         style="stop-color:#181818;stop-opacity:1"
         offset="0" />
      <stop
         id="stop2885-9-2-9-6"
         style="stop-color:#181818;stop-opacity:0"
         offset="1" />
    </linearGradient>
    <radialGradient
       cx="4.9929786"
       cy="43.5"
       r="2.5"
       fx="4.9929786"
       fy="43.5"
       id="radialGradient3339-1-4"
       xlink:href="#linearGradient3688-464-309-9-2-4-2"
       gradientUnits="userSpaceOnUse"
       gradientTransform="matrix(2.4045407,0,0,0.99999998,-22.014244,-102.5)" />
    <linearGradient
       id="linearGradient3688-464-309-9-2-4-2">
      <stop
         id="stop2889-7-9-6-9"
         style="stop-color:#181818;stop-opacity:1"
         offset="0" />
      <stop
         id="stop2891-6-6-1-7"
         style="stop-color:#181818;stop-opacity:0"
         offset="1" />
    </linearGradient>
    <linearGradient
       id="linearGradient3702-501-757-8-4-1-1">
      <stop
         id="stop2895-8-9-9-1"
         style="stop-color:#181818;stop-opacity:0"
         offset="0" />
      <stop
         id="stop2897-7-8-7-7"
         style="stop-color:#181818;stop-opacity:1"
         offset="0.5" />
      <stop
         id="stop2899-4-5-1-5"
         style="stop-color:#181818;stop-opacity:0"
         offset="1" />
    </linearGradient>
    <linearGradient
       x1="25.058096"
       y1="47.027729"
       x2="25.058096"
       y2="39.999443"
       id="linearGradient6394"
       xlink:href="#linearGradient3702-501-757-8-4-1-1"
       gradientUnits="userSpaceOnUse"
       gradientTransform="matrix(1.5714286,0,0,0.7142857,-5.7142853,27.928572)" />
    <linearGradient
       xlink:href="#linearGradient872"
       id="linearGradient856-2-3"
       x1="23.528315"
       y1="6.08318"
       x2="23.528315"
       y2="44.23307"
       gradientUnits="userSpaceOnUse"
       gradientTransform="matrix(1.4102564,0,0,1.4102564,-1.8461748,-3.2564048)" />
  </defs>
  <metadata
     id="metadata6338">
    <rdf:RDF>
      <cc:Work
         rdf:about="">
        <dc:format>image/svg+xml</dc:format>
        <dc:type
           rdf:resource="http://purl.org/dc/dcmitype/StillImage" />
      </cc:Work>
    </rdf:RDF>
  </metadata>
  <rect
     style="opacity:0.6;fill:url(#radialGradient3337-2-2);fill-opacity:1;stroke:none;stroke-width:1.06199"
     id="rect2801-5-5-7-9"
     y="56.5"
     x="54"
     height="5"
     width="6" />
  <rect
     style="opacity:0.6;fill:url(#radialGradient3339-1-4);fill-opacity:1;stroke:none;stroke-width:1.06199"
     id="rect3696-3-0-3-7"
     transform="scale(-1)"
     y="-61.5"
     x="-10"
     height="5"
     width="6" />
  <rect
     style="opacity:0.6;fill:url(#linearGradient6394);fill-opacity:1;stroke:none;stroke-width:1.06199"
     id="rect3700-5-6-8-4"
     y="56.5"
     x="10"
     height="5.0000005"
     width="44" />
  <rect
     style="color:#000000;display:inline;overflow:visible;visibility:visible;opacity:1;fill:url(#linearGradient856-2-3);fill-opacity:1;fill-rule:nonzero;stroke:none;stroke-width:1;stroke-opacity:0.5;marker:none;enable-background:accumulate"
     id="rect5505-21-1-5"
     y="4.5000019"
     x="4.4999986"
     ry="6"
     rx="6"
     height="55"
     width="55" />
  <rect
     style="opacity:0.5;fill:none;stroke:url(#linearGradient3381-5-4);stroke-width:1;stroke-linecap:round;stroke-linejoin:round;stroke-miterlimit:4;stroke-dasharray:none;stroke-dashoffset:0;stroke-opacity:1"
     id="rect6741-5-0-2-3"
     y="5.4287739"
     x="5.4999986"
     ry="5"
     height="53.142479"
     width="53"
     rx="5" />
  <rect
     style="color:#000000;display:inline;overflow:visible;visibility:visible;opacity:0.5;fill:none;fill-opacity:1;fill-rule:nonzero;stroke:#273445;stroke-width:1;stroke-opacity:1;marker:none;enable-background:accumulate"
     id="rect863"
     y="4.5000019"
     x="4.4999986"
     ry="6"
     rx="6"
     height="55"
     width="55" />
  <path
     style="fill:none;fill-opacity:0.265847;stroke:#08385d;stroke-width:5.71635;stroke-dasharray:none;stroke-opacity:0.0544844"
     d="m 26.365353,51.582149 c -2.717648,-0.146006 -5.168472,-0.767962 -6.858397,-1.740484 -1.798331,-1.034904 -3.144406,-2.677744 -4.166067,-5.084531 -0.781643,-1.841361 -1.276876,-3.854721 -1.532123,-6.228812 -0.156063,-1.45158 -0.191124,-3.11044 -0.07384,-3.49339 0.0942,-0.307517 0.393591,-0.680558 0.657324,-0.818991 L 14.602394,34.10565 28.23945,34.08058 41.876504,34.0555 42.315125,33.954546 c 0.755504,-0.173884 1.544764,-0.458264 1.801871,-0.649228 0.03366,-0.025 -0.02667,-0.209149 -0.208574,-0.63627 -0.43151,-1.013239 -0.603594,-1.951241 -0.564821,-3.078692 0.04152,-1.207108 0.279684,-2.245673 0.788249,-3.437211 0.167315,-0.392006 0.682854,-1.350362 0.753816,-1.401301 0.01381,-0.0099 0.194679,0.09769 0.401986,0.23905 1.042218,0.710738 1.961685,1.845915 2.468846,3.048049 0.247788,0.587333 0.457797,1.288644 0.502139,1.676862 0.01463,0.128251 0.03976,0.257827 0.05579,0.287949 0.02222,0.04178 0.165361,0.03645 0.60363,-0.02243 0.693298,-0.09318 1.854817,-0.07114 2.4087,0.04576 0.912911,0.192648 1.601775,0.531482 2.140083,1.052631 l 0.186229,0.180298 -0.119698,0.380836 c -0.268693,0.855206 -0.690344,1.587741 -1.304893,2.266966 -1.082906,1.196873 -2.551779,1.838362 -4.215653,1.841061 l -0.522659,8.97e-4 -0.150907,0.428377 c -0.945744,2.684562 -2.014462,4.965327 -3.151975,6.726653 -1.061352,1.643398 -2.473429,3.25986 -3.85071,4.408077 -2.630293,2.192826 -5.912807,3.598474 -9.545213,4.087483 -1.36184,0.183335 -3.082779,0.254059 -4.426062,0.181889 z m -9.22398,-18.533068 c -0.08621,-0.106603 -0.08669,-0.118276 -0.08669,-2.076813 0,-1.943558 0.0012,-1.970792 0.08396,-2.057848 0.08006,-0.08414 0.171371,-0.08824 1.977311,-0.08824 h 1.893371 l 0.07624,0.109364 c 0.07235,0.103775 0.07621,0.208521 0.07621,2.06905 v 1.959718 l -0.105058,0.09598 c -0.102869,0.09398 -0.143708,0.09599 -1.966836,0.09599 H 17.22811 Z m 4.883048,0.01103 -0.10507,-0.09599 v -1.959638 c 0,-1.860528 0.0039,-1.965253 0.07623,-2.06905 l 0.07621,-0.109363 h 1.901082 1.90108 l 0.07622,0.109363 c 0.07235,0.103764 0.07622,0.208452 0.07622,2.064339 v 1.955005 l -0.09227,0.100683 c -0.09202,0.100402 -0.09755,0.100683 -1.94847,0.100683 -1.817471,0 -1.858373,-0.0022 -1.961244,-0.09599 z m 4.94443,0 -0.105081,-0.09599 v -1.959638 c 0,-1.860528 0.0039,-1.965253 0.07624,-2.06905 l 0.07621,-0.109363 h 1.901081 1.901081 l 0.07621,0.109363 c 0.07235,0.103764 0.07622,0.208452 0.07622,2.064339 v 1.955005 l -0.09227,0.100683 c -0.09202,0.100402 -0.09757,0.100683 -1.94847,0.100683 -1.817472,0 -1.858374,-0.0022 -1.961248,-0.09599 z m 4.873686,0.0073 -0.09414,-0.08848 -0.0113,-1.912778 c -0.0078,-1.332783 0.0021,-1.950697 0.03333,-2.03783 0.02453,-0.06877 0.09294,-0.148301 0.151991,-0.176714 0.07507,-0.03612 0.655894,-0.04775 1.929411,-0.0387 l 1.822022,0.01283 0.09079,0.105479 0.09079,0.105477 v 1.971016 1.971017 l -0.09414,0.08854 c -0.08969,0.08436 -0.182285,0.08855 -1.959399,0.08855 -1.776853,0 -1.869726,-0.0042 -1.959397,-0.08848 z m 4.935426,-0.0073 -0.10507,-0.09599 v -1.959638 c 0,-1.860528 0.0039,-1.965253 0.0762,-2.06905 l 0.07624,-0.109363 h 1.90108 1.901083 l 0.07621,0.109363 c 0.07235,0.103764 0.07621,0.208452 0.07621,2.064339 v 1.955005 l -0.09227,0.100683 c -0.09202,0.100402 -0.09757,0.100683 -1.948472,0.100683 -1.817471,0 -1.858374,-0.0022 -1.961242,-0.09599 z M 22.14907,27.887383 c -0.229718,-0.03492 -0.229714,-0.03487 -0.229714,-2.166237 V 23.77131 l 0.09227,-0.100683 c 0.09204,-0.100444 0.09709,-0.100684 1.966264,-0.100684 1.830794,0 1.875989,0.0022 1.961247,0.09443 0.08712,0.09425 0.08728,0.09773 0.08728,2.055705 0,1.861995 -0.0039,1.966809 -0.0762,2.070606 l -0.07622,0.109364 -1.807847,0.0022 c -0.994316,0.0011 -1.856997,-0.0056 -1.917067,-0.01466 z m 4.944431,0 c -0.22972,-0.03492 -0.229715,-0.03488 -0.229715,-2.166237 V 23.77131 l 0.09227,-0.100683 c 0.09204,-0.100444 0.09705,-0.100684 1.966832,-0.100684 h 1.874547 l 0.08669,0.107167 c 0.08617,0.106527 0.08669,0.118833 0.08669,2.055705 0,1.84943 -0.0041,1.954073 -0.07621,2.057846 l -0.0762,0.109364 -1.807846,0.0022 c -0.994317,0.0011 -1.856998,-0.0056 -1.917068,-0.01466 z m 4.884976,2.22e-4 c -0.04891,-0.0094 -0.125711,-0.07139 -0.170708,-0.137806 -0.07993,-0.118025 -0.08152,-0.164656 -0.07059,-2.061858 l 0.01116,-1.9411 0.09413,-0.08849 c 0.08967,-0.08429 0.182536,-0.08847 1.959397,-0.08847 1.776866,0 1.869724,0.0042 1.959402,0.08848 l 0.09414,0.08848 0.0113,1.944913 0.0113,1.944914 -0.09749,0.131611 -0.09749,0.131612 -1.807775,0.0023 c -0.994277,0.0014 -1.847792,-0.0053 -1.896699,-0.01468 z M 31.84254,22.555158 31.7484,22.466668 31.7371,20.553885 c -0.0079,-1.34133 0.002,-1.950425 0.03365,-2.038797 0.02635,-0.0739 0.09531,-0.146414 0.166752,-0.175333 0.07914,-0.03204 0.747461,-0.04934 1.907983,-0.04934 h 1.786174 l 0.111885,0.111788 0.111887,0.11176 v 1.976311 1.976311 l -0.09415,0.08854 c -0.08969,0.08436 -0.182285,0.08855 -1.959398,0.08855 -1.776852,0 -1.869726,-0.0041 -1.9594,-0.08848 z"
     id="path9206"
     sodipodi:nodetypes="cssssscccssssssssssssscssccssssccsscscsscsscsccsscccsscsscccsscccsscsscccsssscccccssscccsscccsscssccscsscsscccccscsscssscccccssccssccccccccscsssscccccsss" />
  <path
     style="fill:none;stroke:#08385d;stroke-width:1.85824;stroke-dasharray:none;stroke-opacity:0.226806"
     d="m 25.759922,47.746293 c -3.002046,-0.138866 -5.709348,-0.730427 -7.576122,-1.655412 -1.986523,-0.98432 -3.473463,-2.54686 -4.60204,-4.836006 -0.863441,-1.751358 -1.410501,-3.666306 -1.692458,-5.924356 -0.172394,-1.380627 -0.211126,-2.958404 -0.08155,-3.322636 0.104045,-0.292487 0.434778,-0.647294 0.726111,-0.778961 l 0.232135,-0.104904 15.06416,-0.02386 15.064157,-0.02386 0.484518,-0.09603 c 0.834567,-0.165383 1.706425,-0.435866 1.990438,-0.617496 0.03719,-0.02378 -0.02947,-0.198924 -0.230401,-0.605169 -0.476668,-0.963713 -0.666762,-1.855867 -0.62393,-2.928208 0.04586,-1.148108 0.308952,-2.135911 0.870738,-3.269205 0.184825,-0.372848 0.754314,-1.284359 0.832703,-1.332808 0.01522,-0.0095 0.215052,0.09292 0.444054,0.227366 1.151285,0.675997 2.166972,1.755688 2.727206,2.899064 0.27372,0.558625 0.505706,1.225655 0.554689,1.594899 0.01618,0.121986 0.04391,0.245224 0.06162,0.273876 0.02455,0.03975 0.182665,0.03467 0.666799,-0.02135 0.765853,-0.08863 2.048926,-0.06766 2.660767,0.04353 1.008436,0.183232 1.769398,0.505504 2.364039,1.00118 l 0.205719,0.171488 -0.132114,0.362217 c -0.296805,0.813408 -0.762581,1.510137 -1.441443,2.156162 -1.196228,1.138371 -2.818824,1.748503 -4.65682,1.751071 l -0.577352,8.54e-4 -0.166702,0.407439 c -1.044714,2.553343 -2.225273,4.722627 -3.481824,6.39786 -1.172421,1.563072 -2.732272,3.100523 -4.253683,4.192616 -2.90555,2.085644 -6.531575,3.422586 -10.544111,3.887694 -1.504352,0.174374 -3.405386,0.24164 -4.889243,0.172999 z M 15.570664,30.119096 c -0.09523,-0.10138 -0.09577,-0.112498 -0.09577,-1.975298 0,-1.848561 0.0014,-1.874465 0.09273,-1.957265 0.08843,-0.08002 0.189303,-0.08392 2.184234,-0.08392 h 2.09151 l 0.08421,0.104004 c 0.07992,0.0987 0.0842,0.198329 0.0842,1.967917 v 1.863927 l -0.116057,0.09129 c -0.113644,0.08939 -0.158745,0.0913 -2.17266,0.0913 h -2.056598 z m 5.394053,0.0106 -0.116057,-0.09129 v -1.863887 c 0,-1.769588 0.0042,-1.869193 0.08421,-1.967916 l 0.08421,-0.104004 h 2.100027 2.100028 l 0.0842,0.104004 c 0.07992,0.09869 0.08421,0.198259 0.08421,1.963436 v 1.859447 l -0.101932,0.09577 c -0.101662,0.09551 -0.107775,0.09577 -2.152376,0.09577 -2.007668,0 -2.05285,-0.0021 -2.166487,-0.09129 z m 5.461856,0 -0.116056,-0.09129 v -1.863887 c 0,-1.769588 0.0042,-1.869193 0.08421,-1.967916 l 0.08421,-0.104004 h 2.100025 2.100028 l 0.0842,0.104004 c 0.07993,0.09869 0.08421,0.198259 0.08421,1.963436 v 1.859447 l -0.101932,0.09577 c -0.101662,0.09551 -0.107786,0.09577 -2.152376,0.09577 -2.007667,0 -2.052851,-0.0021 -2.166489,-0.09129 z m 5.383714,0.007 -0.103983,-0.08417 -0.01242,-1.819284 c -0.0086,-1.267638 0.0023,-1.855349 0.03682,-1.938222 0.02709,-0.06542 0.102661,-0.141053 0.167896,-0.168076 0.08293,-0.03437 0.724532,-0.04542 2.131322,-0.03682 l 2.012692,0.01227 0.100278,0.100319 0.100287,0.10032 v 1.874674 1.874675 l -0.103982,0.0842 c -0.09908,0.08023 -0.20136,0.08421 -2.164448,0.08421 -1.962799,0 -2.06539,-0.0041 -2.164447,-0.08416 z m 5.45191,-0.007 -0.116057,-0.09129 v -1.863887 c 0,-1.769588 0.0042,-1.869193 0.0842,-1.967916 l 0.08421,-0.104004 h 2.100027 2.100028 l 0.0842,0.104004 c 0.07992,0.09869 0.08421,0.198259 0.08421,1.963436 v 1.859447 l -0.101932,0.09577 c -0.101662,0.09551 -0.107785,0.09577 -2.152377,0.09577 -2.007669,0 -2.052851,-0.0021 -2.166486,-0.09129 z M 21.102409,25.209719 c -0.253757,-0.03321 -0.253751,-0.03317 -0.253751,-2.060352 v -1.85453 l 0.101932,-0.09577 c 0.101693,-0.09553 0.107255,-0.09577 2.172031,-0.09577 2.022386,0 2.072308,0.0021 2.166488,0.08982 0.09624,0.08966 0.09642,0.09296 0.09642,1.955224 0,1.770982 -0.0042,1.870674 -0.0842,1.969396 l -0.0842,0.104004 -1.997035,0.0021 c -1.09837,0.001 -2.051331,-0.0053 -2.117687,-0.01396 z m 5.461857,0 c -0.253757,-0.03321 -0.253751,-0.03317 -0.253751,-2.060352 v -1.85453 l 0.101932,-0.09577 c 0.101693,-0.09553 0.107222,-0.09577 2.17266,-0.09577 h 2.070715 l 0.09577,0.101933 c 0.0952,0.101328 0.09577,0.113043 0.09577,1.955223 0,1.759034 -0.0043,1.858562 -0.0842,1.957263 l -0.0842,0.104003 -1.997033,0.0021 c -1.098371,0.001 -2.051331,-0.0053 -2.117687,-0.01396 z m 5.396187,2.13e-4 c -0.05404,-0.009 -0.138881,-0.06791 -0.188573,-0.131068 -0.08829,-0.112263 -0.09007,-0.156607 -0.07797,-1.961077 l 0.01227,-1.846221 0.103972,-0.08416 c 0.09906,-0.08018 0.201639,-0.08415 2.164448,-0.08415 1.96281,0 2.065387,0.0041 2.164448,0.08416 l 0.103983,0.08417 0.01242,1.849849 0.01242,1.849848 -0.107687,0.125181 -0.107685,0.12518 -1.996958,0.0022 c -1.098325,0.0014 -2.041161,-0.005 -2.095186,-0.01397 z m -0.150166,-5.071805 -0.103983,-0.08417 -0.01242,-1.819288 c -0.0088,-1.27577 0.0022,-1.855092 0.03718,-1.939143 0.02912,-0.0703 0.10529,-0.139258 0.184203,-0.166765 0.08742,-0.03047 0.825681,-0.04691 2.10765,-0.04691 h 1.973096 l 0.12359,0.106306 0.12359,0.106306 v 1.879711 1.879712 l -0.103993,0.0842 c -0.09908,0.08023 -0.20136,0.08421 -2.164446,0.08421 -1.9628,0 -2.065391,-0.0039 -2.164449,-0.08416 z"
     id="path9206-3-6"
     sodipodi:nodetypes="cssssscccssssssssssssscssccssssccsscscsscsscsccsscccsscsscccsscccsscsscccsssscccccssscccsscccsscssccscsscsscccccscsscssscccccssccssccccccccscsssscccccsss" />
  <path
     style="fill:#ffffff;stroke-width:0.0440471"
     d="m 25.664149,47.644355 c -3.002045,-0.138867 -5.709348,-0.730428 -7.576122,-1.655413 -1.986523,-0.98432 -3.473462,-2.54686 -4.602039,-4.836005 -0.863441,-1.75136 -1.410502,-3.666307 -1.692459,-5.924357 -0.172394,-1.380627 -0.211125,-2.958404 -0.08155,-3.322637 0.104046,-0.292486 0.43478,-0.647293 0.726111,-0.77896 l 0.232136,-0.104904 15.064159,-0.02386 15.064157,-0.02386 0.484519,-0.09603 c 0.834566,-0.165384 1.706425,-0.435865 1.990437,-0.617496 0.03719,-0.02378 -0.02947,-0.198925 -0.2304,-0.605167 -0.476669,-0.963714 -0.666763,-1.855869 -0.623931,-2.928209 0.04586,-1.148109 0.308952,-2.13591 0.87074,-3.269207 0.184824,-0.372847 0.754314,-1.284356 0.832703,-1.332807 0.01522,-0.0095 0.215051,0.09292 0.444053,0.227367 1.151285,0.675996 2.166972,1.755688 2.727207,2.899063 0.273718,0.558626 0.505704,1.225655 0.554687,1.594898 0.01618,0.121987 0.04392,0.245224 0.06162,0.273876 0.02455,0.03974 0.182664,0.03466 0.666799,-0.02135 0.765852,-0.08863 2.048925,-0.06766 2.660766,0.04353 1.008437,0.183234 1.769399,0.505505 2.364039,1.001182 l 0.20572,0.171485 -0.132115,0.362217 c -0.296804,0.813409 -0.762581,1.510137 -1.441442,2.156163 -1.196228,1.138371 -2.818824,1.748503 -4.65682,1.751071 l -0.577353,8.55e-4 -0.166702,0.407438 c -1.044714,2.553343 -2.225272,4.722628 -3.481824,6.397861 -1.172421,1.563071 -2.732271,3.100523 -4.253683,4.192616 -2.905548,2.085643 -6.531575,3.422587 -10.54411,3.887693 -1.504353,0.174375 -3.405387,0.24164 -4.889244,0.172999 z M 15.474891,30.017158 c -0.09522,-0.101381 -0.09577,-0.1125 -0.09577,-1.9753 0,-1.84856 0.0014,-1.874465 0.09273,-1.957264 0.08843,-0.08002 0.189303,-0.08391 2.184233,-0.08391 h 2.09151 l 0.08421,0.104004 c 0.07992,0.09872 0.0842,0.198331 0.0842,1.967919 v 1.863928 l -0.116056,0.09129 c -0.113645,0.0894 -0.158745,0.0913 -2.172661,0.0913 h -2.056603 z m 5.394052,0.0106 -0.116056,-0.0913 v -1.863891 c 0,-1.769589 0.0042,-1.869194 0.08421,-1.967917 l 0.08421,-0.103994 h 2.100027 2.100027 l 0.0842,0.103994 c 0.07993,0.0987 0.08421,0.198262 0.08421,1.963436 v 1.859448 l -0.101933,0.09577 c -0.101662,0.09551 -0.107775,0.09577 -2.152377,0.09577 -2.007666,0 -2.052848,-0.0021 -2.166485,-0.09129 z m 5.461858,0 -0.116057,-0.0913 v -1.863891 c 0,-1.769589 0.0042,-1.869194 0.08421,-1.967917 l 0.08421,-0.103994 h 2.100026 2.100027 l 0.0842,0.103994 c 0.07993,0.0987 0.08421,0.198262 0.08421,1.963436 v 1.859448 l -0.101933,0.09577 c -0.101661,0.09551 -0.107785,0.09577 -2.152375,0.09577 -2.007667,0 -2.05285,-0.0021 -2.166488,-0.09129 z m 5.383713,0.007 -0.103983,-0.08417 -0.01242,-1.819285 c -0.0086,-1.267639 0.0023,-1.85535 0.03682,-1.938224 0.02709,-0.06542 0.102661,-0.14105 0.167897,-0.168074 0.08293,-0.03437 0.724531,-0.04542 2.131321,-0.03682 l 2.012693,0.01227 0.100277,0.100319 0.100288,0.100319 v 1.874674 1.874676 l -0.103983,0.0842 c -0.09908,0.08023 -0.201358,0.08421 -2.164447,0.08421 -1.962799,0 -2.065391,-0.0041 -2.164446,-0.08416 z m 5.451912,-0.007 -0.116058,-0.0913 v -1.863891 c 0,-1.769589 0.0042,-1.869194 0.0842,-1.967917 l 0.08421,-0.103994 h 2.100027 2.100029 l 0.0842,0.103994 c 0.07992,0.0987 0.08421,0.198262 0.08421,1.963436 v 1.859448 l -0.101932,0.09577 c -0.101662,0.09551 -0.107786,0.09577 -2.152378,0.09577 -2.007669,0 -2.05285,-0.0021 -2.166486,-0.09129 z M 21.006637,25.107783 C 20.75288,25.074569 20.752885,25.07461 20.752885,23.04743 v -1.854529 l 0.101932,-0.09577 c 0.101693,-0.09553 0.107256,-0.09577 2.172031,-0.09577 2.022387,0 2.072309,0.0021 2.166489,0.08982 0.09624,0.08966 0.09642,0.09296 0.09642,1.955222 0,1.770983 -0.0042,1.870674 -0.0842,1.969398 l -0.0842,0.103993 -1.997035,0.0021 c -1.098371,10e-4 -2.051332,-0.0053 -2.117687,-0.01395 z m 5.461858,0 c -0.253759,-0.03321 -0.253754,-0.03317 -0.253754,-2.060353 v -1.854529 l 0.101933,-0.09577 c 0.101693,-0.09553 0.107222,-0.09577 2.172658,-0.09577 h 2.070716 l 0.09577,0.101932 c 0.0952,0.101329 0.09577,0.113043 0.09577,1.955223 0,1.759036 -0.0043,1.858564 -0.0842,1.957262 l -0.0842,0.104004 -1.997034,0.0021 c -1.09837,0.001 -2.05133,-0.0053 -2.117687,-0.01396 z m 5.396184,2.12e-4 c -0.05403,-0.009 -0.138879,-0.06791 -0.188572,-0.131068 -0.08829,-0.112262 -0.09007,-0.156607 -0.07797,-1.961076 l 0.01227,-1.846222 0.103973,-0.08416 c 0.09906,-0.08018 0.201637,-0.08415 2.164447,-0.08415 1.962811,0 2.065388,0.0041 2.164448,0.08416 l 0.103994,0.08416 0.01242,1.849849 0.01242,1.849848 -0.107687,0.12518 -0.107685,0.125183 -1.996959,0.0022 c -1.098324,0.0014 -2.04116,-0.005 -2.095185,-0.01397 z m -0.150165,-5.071805 -0.103983,-0.08416 -0.01242,-1.819289 c -0.0088,-1.275769 0.0022,-1.855091 0.03718,-1.939142 0.02912,-0.0703 0.10529,-0.139258 0.184202,-0.166764 0.08742,-0.03047 0.825682,-0.04691 2.10765,-0.04691 h 1.973096 l 0.123591,0.106306 0.12359,0.106306 v 1.879712 1.879712 l -0.104004,0.0842 c -0.09908,0.08023 -0.20136,0.08421 -2.164446,0.08421 -1.9628,0 -2.065391,-0.0039 -2.164448,-0.08416 z"
     id="path9206-3"
     sodipodi:nodetypes="cssssscccssssssssssssscssccssssccsscscsscsscsccsscccsscsscccsscccsscsscccsssscccccssscccsscccsscssccscsscsscccccscsscssscccccssccssccccccccscsssscccccsss" />
</svg>
